<svg width="65" height="64" viewBox="0 0 65 64" fill="none" xmlns="http://www.w3.org/2000/svg">
<path d="M10.689 30.1348C17.7886 30.1025 16.2962 30.9735 18.1435 24.2353C18.4712 23.0946 17.5179 21.8645 16.331 21.8975C16.331 21.8975 11.8872 21.8975 11.8872 21.8975C11.0415 21.8975 10.2978 22.4683 10.0786 23.2866L8.88036 27.7817C8.54177 28.9258 9.49555 30.1679 10.689 30.1348ZM11.9858 23.8975H16.1655L15.0757 28.1348H10.856L11.9858 23.8975ZM60.5596 39.1942V32.5898C60.5596 31.1943 59.5615 30.0024 58.1816 29.7549L53.3594 28.9145L48.6816 20.9326C48.0735 19.8988 47.0655 19.1763 45.9268 18.9041V17.7368C45.9268 16.7217 45.1006 15.896 44.0859 15.896H42.541C41.5264 15.896 40.7012 16.7217 40.7012 17.7368V18.7798H38.4834V16.4429C38.4834 15.8906 38.0361 15.4429 37.4834 15.4429H8.88671C8.42138 15.4429 8.01708 15.7642 7.91259 16.2178L7.15563 19.4925C7.13707 19.5064 4.36821 29.5335 4.35641 29.5523C4.33202 29.6392 4.31982 29.7295 4.31982 29.8198V39.2569C3.69134 39.5728 3.25488 40.2169 3.25488 40.9668V42.2666C3.25488 43.3257 4.11621 44.187 5.1748 44.187H11.1338C12.5353 49.9659 20.75 49.9707 22.1514 44.1869C22.1514 44.187 44.439 44.187 44.439 44.187C45.0262 46.6878 47.2698 48.5571 49.9473 48.5571C52.6247 48.5571 54.8683 46.6878 55.4556 44.187H59.8252C60.8838 44.187 61.7451 43.3257 61.7451 42.2666V40.9668C61.7451 40.1684 61.2546 39.4833 60.5596 39.1942ZM50.9877 28.8242H45.206C44.8935 28.8242 44.6387 28.5698 44.6387 28.2573V24.916C44.6387 24.6035 44.8935 24.3491 45.206 24.3491H48.3655L50.9877 28.8242ZM46.957 21.9453L47.1937 22.3491H45.206C43.79 22.3491 42.6387 23.5005 42.6387 24.916V28.2573C42.6387 29.6728 43.79 30.8242 45.206 30.8242H52.6678L57.833 31.7246C58.7617 31.8987 58.539 32.955 58.5595 33.6362C58.5596 33.6362 55.9648 33.6362 55.9648 33.6362C55.4121 33.6362 54.9648 34.084 54.9648 34.6362C54.9648 35.1885 55.4121 35.6362 55.9648 35.6362H58.5596V39.0469H54.092C52.0671 36.6608 47.8228 36.6646 45.7999 39.0499C45.7999 39.0498 40.0046 39.0498 40.0046 39.0498L40.001 29.9126L40.8121 20.7798C41.3666 20.7896 44.3032 20.7815 44.9268 20.7847C45.7522 20.7735 46.5348 21.23 46.957 21.9453ZM21.9919 41.0498H32.1099C33.4265 41.0246 33.423 39.0732 32.1098 39.0498H24.8271V20.7798H37.4592C37.4754 20.7854 37.4913 20.7845 37.5076 20.7798H38.8046L38.0049 29.8242V39.0498H36.1104C35.5576 39.0498 35.1104 39.4975 35.1104 40.0498C35.1104 40.602 35.5576 41.0498 36.1104 41.0498H44.5983C44.4725 41.4139 44.3824 41.7938 44.3331 42.187H22.2572C22.2079 41.7938 22.1178 41.4139 21.9919 41.0498ZM42.7012 17.896H43.9268V18.7798H42.7012V17.896ZM8.86962 20.7798H12.6401C13.1924 20.7798 13.6401 20.332 13.6401 19.7798C13.6401 19.2275 13.1924 18.7798 12.6401 18.7798H9.37286L9.68213 17.4429H36.4834V18.7798H16.6401C15.3246 18.8046 15.3261 20.7562 16.6402 20.7798C16.6401 20.7798 22.8272 20.7798 22.8272 20.7798V39.0498H20.7902C18.7668 36.6617 14.5226 36.6636 12.4976 39.047C12.4976 39.0469 6.31982 39.0469 6.31982 39.0469V29.9561L8.86962 20.7798ZM5.25487 41.0469H11.2943C11.1679 41.4119 11.0774 41.7927 11.0279 42.187H5.25487V41.0469ZM16.6426 46.5571C11.801 46.4031 11.8021 39.3832 16.6427 39.23C21.4842 39.384 21.483 46.4039 16.6426 46.5571ZM49.9473 46.5571C45.1064 46.403 45.1075 39.3834 49.9473 39.23C54.7882 39.3841 54.787 46.4037 49.9473 46.5571ZM59.7451 42.187H55.5614C55.512 41.7927 55.4215 41.4119 55.2951 41.0469H59.7451L59.7451 42.187ZM16.6426 40.4531C13.4246 40.5375 13.4252 45.2501 16.6426 45.334C19.8606 45.2496 19.8599 40.537 16.6426 40.4531ZM16.6426 43.334C16.0668 43.3308 16.0669 42.4562 16.6426 42.4531C17.2183 42.4563 17.2183 43.3309 16.6426 43.334ZM49.9473 40.4531C46.7293 40.5375 46.7299 45.2501 49.9473 45.334C53.1652 45.2496 53.1646 40.537 49.9473 40.4531ZM49.9473 43.334C49.3714 43.331 49.3714 42.456 49.9473 42.4531C50.5231 42.4561 50.5231 43.3311 49.9473 43.334ZM36.3223 29.6758V26.7056C36.3223 26.1533 35.875 25.7056 35.3223 25.7056H33.9014V24.2847C33.9014 23.7324 33.4536 23.2847 32.9014 23.2847H29.9312C29.3789 23.2847 28.9312 23.7324 28.9312 24.2847V25.7056H27.5103C26.958 25.7056 26.5103 26.1533 26.5103 26.7056V29.6758C26.5103 30.228 26.958 30.6758 27.5103 30.6758H28.9312V32.0967C28.9312 32.6489 29.3789 33.0967 29.9312 33.0967H32.9014C33.4536 33.0967 33.9014 32.6489 33.9014 32.0967V30.6758H35.3223C35.875 30.6758 36.3223 30.228 36.3223 29.6758ZM34.3223 28.6758H32.9014C32.3491 28.6758 31.9014 29.1235 31.9014 29.6758V31.0967H30.9312V29.6758C30.9312 29.1235 30.4834 28.6758 29.9312 28.6758H28.5103V27.7056H29.9312C30.4834 27.7056 30.9312 27.2578 30.9312 26.7056V25.2847H31.9014V26.7056C31.9014 27.2578 32.3491 27.7056 32.9014 27.7056H34.3223V28.6758Z" fill="url(#paint0_linear_1325_44636)"/>
<defs>
<linearGradient id="paint0_linear_1325_44636" x1="3.25499" y1="32" x2="61.745" y2="32" gradientUnits="userSpaceOnUse">
<stop stop-color="#096FE0"/>
<stop offset="0.15843" stop-color="#167CE3"/>
<stop offset="1" stop-color="#5EC3F6"/>
</linearGradient>
</defs>
</svg>
