<svg width="50" height="50" viewBox="0 0 50 50" fill="none" xmlns="http://www.w3.org/2000/svg">
<g clip-path="url(#clip0_1325_44670)">
<path d="M45.3319 6.82208C45.3319 5.61749 44.3544 4.64099 43.1485 4.64099H6.85147C5.64559 4.64099 4.66803 5.61749 4.66803 6.82208V10.9676H45.3318V6.82208H45.3319Z" fill="#6262F4"/>
<path d="M4.66803 10.9677V35.6123C4.66803 36.8169 5.64559 37.7934 6.85147 37.7934H43.1485C44.3544 37.7934 45.3319 36.8169 45.3319 35.6123V10.9677H4.66803Z" fill="#DFDEF9"/>
<path d="M10.468 16.4329H16.5505V21.5835H10.468V16.4329Z" fill="#AC9EF9"/>
<path d="M10.468 27.0487H16.5505V32.1993H10.468V27.0487Z" fill="#AC9EF9"/>
<path d="M21.9587 16.4329H28.0412V21.5835H21.9587V16.4329Z" fill="#AC9EF9"/>
<path d="M21.9587 27.0487H28.0412V32.1993H21.9587V27.0487Z" fill="#AC9EF9"/>
<path d="M33.4495 27.0487H39.5319V32.1993H33.4495V27.0487Z" fill="#AC9EF9"/>
<path d="M33.4495 16.4329H39.5319V21.5835H33.4495V16.4329Z" fill="#AC9EF9"/>
<path d="M35.2794 8.48024C34.9843 8.48024 34.7452 8.24103 34.7452 7.94606V1.49574C34.7452 1.20076 34.9843 0.961548 35.2794 0.961548C35.5745 0.961548 35.8136 1.20076 35.8136 1.49574V7.94606C35.8136 8.24103 35.5745 8.48024 35.2794 8.48024Z" fill="#AC9EF9"/>
<path d="M14.7206 8.48024C14.4256 8.48024 14.1864 8.24103 14.1864 7.94606V1.49574C14.1864 1.20076 14.4256 0.961548 14.7206 0.961548C15.0156 0.961548 15.2548 1.20076 15.2548 1.49574V7.94606C15.2548 8.24103 15.0156 8.48024 14.7206 8.48024Z" fill="#AC9EF9"/>
<path d="M41.1005 49.0313C46.0156 49.0313 50 45.0554 50 40.1508C50 35.2463 46.0156 31.2704 41.1005 31.2704C36.1855 31.2704 32.201 35.2463 32.201 40.1508C32.201 45.0554 36.1855 49.0313 41.1005 49.0313Z" fill="#FFD085"/>
<path d="M44.5473 43.657C44.4237 43.657 44.2997 43.6144 44.1987 43.5274L40.7517 40.5554C40.634 40.4539 40.5663 40.3063 40.5663 40.1508V35.9622C40.5663 35.6672 40.8054 35.428 41.1005 35.428C41.3956 35.428 41.6347 35.6672 41.6347 35.9622V39.9061L44.8963 42.7184C45.2747 43.0217 45.0224 43.6748 44.5473 43.657Z" fill="white"/>
<path d="M41.1006 33.4562C41.4021 33.4562 41.6464 33.212 41.6464 32.9109V31.2885C41.4656 31.2776 41.284 31.2703 41.1006 31.2703C40.9171 31.2703 40.7354 31.2775 40.5547 31.2884V32.9108C40.5546 33.212 40.7991 33.4562 41.1006 33.4562Z" fill="white"/>
<path d="M34.3911 40.1508C34.3911 39.8496 34.1467 39.6055 33.8453 39.6055H32.2195C32.2085 39.786 32.2012 39.9675 32.2012 40.1508C32.2012 40.3341 32.2086 40.5155 32.2195 40.6961H33.8453C34.1467 40.6961 34.3911 40.4518 34.3911 40.1508Z" fill="white"/>
<path d="M41.1006 46.8453C40.7991 46.8453 40.5547 47.0895 40.5547 47.3906V49.013C40.7354 49.0239 40.9171 49.0312 41.1006 49.0312C41.284 49.0312 41.4658 49.024 41.6464 49.013V47.3906C41.6464 47.0896 41.4021 46.8453 41.1006 46.8453Z" fill="white"/>
<path d="M49.9817 39.6055H48.356C48.0545 39.6055 47.8101 39.8496 47.8101 40.1508C47.8101 40.4519 48.0545 40.6961 48.356 40.6961H49.9817C49.9927 40.5155 50 40.3341 50 40.1508C50 39.9674 49.9926 39.786 49.9817 39.6055Z" fill="white"/>
<path d="M25.1784 33.2108C25.1784 32.0062 24.2009 31.0297 22.995 31.0297H2.18344C0.977564 31.0297 0 32.0062 0 33.2108V35.4627H25.1784V33.2108Z" fill="#35C9AD"/>
<path d="M0 35.4628V46.8573C0 48.0619 0.977564 49.0384 2.18344 49.0384H22.995C24.2009 49.0384 25.1784 48.0619 25.1784 46.8573V35.4628H0Z" fill="#25B79B"/>
<path d="M20.8715 40.5293H15.2269C14.932 40.5293 14.6927 40.2901 14.6927 39.9951C14.6927 39.7001 14.932 39.4609 15.2269 39.4609H20.8715C21.1665 39.4609 21.4057 39.7001 21.4057 39.9951C21.4057 40.2901 21.1665 40.5293 20.8715 40.5293Z" fill="white"/>
<path d="M20.8715 45.0401H15.2269C14.932 45.0401 14.6927 44.8008 14.6927 44.5059C14.6927 44.2109 14.932 43.9717 15.2269 43.9717H20.8715C21.1665 43.9717 21.4057 44.2109 21.4057 44.5059C21.4057 44.8008 21.1665 45.0401 20.8715 45.0401Z" fill="white"/>
<path d="M5.37532 44.8697H10.2526C10.8426 44.8697 11.3209 44.3914 11.3209 43.8013V40.6998C11.3209 40.1098 10.8426 39.6315 10.2526 39.6315H5.37532C4.78526 39.6315 4.30695 40.1098 4.30695 40.6998V43.8013C4.30695 44.3913 4.78526 44.8697 5.37532 44.8697Z" fill="white"/>
</g>
<defs>
<clipPath id="clip0_1325_44670">
<rect width="50" height="50" fill="white"/>
</clipPath>
</defs>
</svg>
