<svg width="65" height="64" viewBox="0 0 65 64" fill="none" xmlns="http://www.w3.org/2000/svg">
<path d="M18.5 22H12.5C12.2348 22 11.9804 22.1054 11.7929 22.2929C11.6054 22.4804 11.5 22.7348 11.5 23V29C11.5 29.2652 11.6054 29.5196 11.7929 29.7071C11.9804 29.8946 12.2348 30 12.5 30H18.5C18.7652 30 19.0196 29.8946 19.2071 29.7071C19.3946 29.5196 19.5 29.2652 19.5 29V23C19.5 22.7348 19.3946 22.4804 19.2071 22.2929C19.0196 22.1054 18.7652 22 18.5 22ZM17.5 28H13.5V24H17.5V28Z" fill="url(#paint0_linear_1325_44573)"/>
<path d="M22.5 30H28.5C28.7652 30 29.0196 29.8946 29.2071 29.7071C29.3946 29.5196 29.5 29.2652 29.5 29V23C29.5 22.7348 29.3946 22.4804 29.2071 22.2929C29.0196 22.1054 28.7652 22 28.5 22H22.5C22.2348 22 21.9804 22.1054 21.7929 22.2929C21.6054 22.4804 21.5 22.7348 21.5 23V29C21.5 29.2652 21.6054 29.5196 21.7929 29.7071C21.9804 29.8946 22.2348 30 22.5 30ZM23.5 24H27.5V28H23.5V24Z" fill="url(#paint1_linear_1325_44573)"/>
<path d="M32.5 30H38.5C38.7652 30 39.0196 29.8946 39.2071 29.7071C39.3946 29.5196 39.5 29.2652 39.5 29V23C39.5 22.7348 39.3946 22.4804 39.2071 22.2929C39.0196 22.1054 38.7652 22 38.5 22H32.5C32.2348 22 31.9804 22.1054 31.7929 22.2929C31.6054 22.4804 31.5 22.7348 31.5 23V29C31.5 29.2652 31.6054 29.5196 31.7929 29.7071C31.9804 29.8946 32.2348 30 32.5 30ZM33.5 24H37.5V28H33.5V24Z" fill="url(#paint2_linear_1325_44573)"/>
<path d="M18.5 32H12.5C12.2348 32 11.9804 32.1054 11.7929 32.2929C11.6054 32.4804 11.5 32.7348 11.5 33V39C11.5 39.2652 11.6054 39.5196 11.7929 39.7071C11.9804 39.8946 12.2348 40 12.5 40H18.5C18.7652 40 19.0196 39.8946 19.2071 39.7071C19.3946 39.5196 19.5 39.2652 19.5 39V33C19.5 32.7348 19.3946 32.4804 19.2071 32.2929C19.0196 32.1054 18.7652 32 18.5 32ZM17.5 38H13.5V34H17.5V38Z" fill="url(#paint3_linear_1325_44573)"/>
<path d="M22.5 40H28.5C28.7652 40 29.0196 39.8946 29.2071 39.7071C29.3946 39.5196 29.5 39.2652 29.5 39V33C29.5 32.7348 29.3946 32.4804 29.2071 32.2929C29.0196 32.1054 28.7652 32 28.5 32H22.5C22.2348 32 21.9804 32.1054 21.7929 32.2929C21.6054 32.4804 21.5 32.7348 21.5 33V39C21.5 39.2652 21.6054 39.5196 21.7929 39.7071C21.9804 39.8946 22.2348 40 22.5 40ZM23.5 34H27.5V38H23.5V34Z" fill="url(#paint4_linear_1325_44573)"/>
<path d="M42.5 30H48.5C48.7652 30 49.0196 29.8946 49.2071 29.7071C49.3946 29.5196 49.5 29.2652 49.5 29V23C49.5 22.7348 49.3946 22.4804 49.2071 22.2929C49.0196 22.1054 48.7652 22 48.5 22H42.5C42.2348 22 41.9804 22.1054 41.7929 22.2929C41.6054 22.4804 41.5 22.7348 41.5 23V29C41.5 29.2652 41.6054 29.5196 41.7929 29.7071C41.9804 29.8946 42.2348 30 42.5 30ZM43.5 24H47.5V28H43.5V24Z" fill="url(#paint5_linear_1325_44573)"/>
<path d="M42.5 40H48.5C48.7652 40 49.0196 39.8946 49.2071 39.7071C49.3946 39.5196 49.5 39.2652 49.5 39V33C49.5 32.7348 49.3946 32.4804 49.2071 32.2929C49.0196 32.1054 48.7652 32 48.5 32H42.5C42.2348 32 41.9804 32.1054 41.7929 32.2929C41.6054 32.4804 41.5 32.7348 41.5 33V39C41.5 39.2652 41.6054 39.5196 41.7929 39.7071C41.9804 39.8946 42.2348 40 42.5 40ZM43.5 34H47.5V38H43.5V34Z" fill="url(#paint6_linear_1325_44573)"/>
<path d="M18.5 42H12.5C12.2348 42 11.9804 42.1054 11.7929 42.2929C11.6054 42.4804 11.5 42.7348 11.5 43V49C11.5 49.2652 11.6054 49.5196 11.7929 49.7071C11.9804 49.8946 12.2348 50 12.5 50H18.5C18.7652 50 19.0196 49.8946 19.2071 49.7071C19.3946 49.5196 19.5 49.2652 19.5 49V43C19.5 42.7348 19.3946 42.4804 19.2071 42.2929C19.0196 42.1054 18.7652 42 18.5 42ZM17.5 48H13.5V44H17.5V48Z" fill="url(#paint7_linear_1325_44573)"/>
<path d="M59.5 42H56.5V9C56.4976 8.20508 56.1808 7.4434 55.6187 6.8813C55.0566 6.31921 54.2949 6.00237 53.5 6H48.5V5C48.5 4.20435 48.1839 3.44129 47.6213 2.87868C47.0587 2.31607 46.2957 2 45.5 2C44.7043 2 43.9413 2.31607 43.3787 2.87868C42.8161 3.44129 42.5 4.20435 42.5 5V6H18.5V5C18.5 4.20435 18.1839 3.44129 17.6213 2.87868C17.0587 2.31607 16.2956 2 15.5 2C14.7044 2 13.9413 2.31607 13.3787 2.87868C12.8161 3.44129 12.5 4.20435 12.5 5V6H7.5C6.70508 6.00237 5.9434 6.31921 5.3813 6.8813C4.81921 7.4434 4.50237 8.20508 4.5 9V55C4.50237 55.7949 4.81921 56.5566 5.3813 57.1187C5.9434 57.6808 6.70508 57.9976 7.5 58H29.68C29.5154 58.4518 29.4626 58.9367 29.526 59.4133C29.5895 59.89 29.7673 60.3442 30.0444 60.7371C30.3215 61.1301 30.6895 61.4503 31.1171 61.6702C31.5447 61.8901 32.0192 62.0032 32.5 62H44.41C45.3575 61.9726 46.2786 61.6818 47.07 61.16L48.04 60.5C48.5349 60.1717 49.1161 59.9977 49.71 60H50.5V61C50.5 61.2652 50.6054 61.5196 50.7929 61.7071C50.9804 61.8946 51.2348 62 51.5 62H59.5C59.7652 62 60.0196 61.8946 60.2071 61.7071C60.3946 61.5196 60.5 61.2652 60.5 61V43C60.5 42.7348 60.3946 42.4804 60.2071 42.2929C60.0196 42.1054 59.7652 42 59.5 42ZM44.5 5C44.5 4.73478 44.6054 4.48043 44.7929 4.29289C44.9804 4.10536 45.2348 4 45.5 4C45.7652 4 46.0196 4.10536 46.2071 4.29289C46.3946 4.48043 46.5 4.73478 46.5 5V9C46.5 9.26522 46.3946 9.51957 46.2071 9.70711C46.0196 9.89464 45.7652 10 45.5 10C45.2348 10 44.9804 9.89464 44.7929 9.70711C44.6054 9.51957 44.5 9.26522 44.5 9V5ZM14.5 5C14.5 4.73478 14.6054 4.48043 14.7929 4.29289C14.9804 4.10536 15.2348 4 15.5 4C15.7652 4 16.0196 4.10536 16.2071 4.29289C16.3946 4.48043 16.5 4.73478 16.5 5V9C16.5 9.26522 16.3946 9.51957 16.2071 9.70711C16.0196 9.89464 15.7652 10 15.5 10C15.2348 10 14.9804 9.89464 14.7929 9.70711C14.6054 9.51957 14.5 9.26522 14.5 9V5ZM6.5 9C6.5 8.73478 6.60536 8.48043 6.79289 8.29289C6.98043 8.10536 7.23478 8 7.5 8H12.5V9C12.5 9.79565 12.8161 10.5587 13.3787 11.1213C13.9413 11.6839 14.7044 12 15.5 12C16.2956 12 17.0587 11.6839 17.6213 11.1213C18.1839 10.5587 18.5 9.79565 18.5 9V8H42.5V9C42.5 9.79565 42.8161 10.5587 43.3787 11.1213C43.9413 11.6839 44.7043 12 45.5 12C46.2957 12 47.0587 11.6839 47.6213 11.1213C48.1839 10.5587 48.5 9.79565 48.5 9V8H53.5C53.7652 8 54.0196 8.10536 54.2071 8.29289C54.3946 8.48043 54.5 8.73478 54.5 9V14H6.5V9ZM50.5 58H49.71C48.7208 57.9997 47.7536 58.292 46.93 58.84L45.96 59.49C45.4921 59.8058 44.9443 59.9826 44.38 60H32.5C32.2348 60 31.9804 59.8946 31.7929 59.7071C31.6054 59.5196 31.5 59.2652 31.5 59C31.5 58.7348 31.6054 58.4804 31.7929 58.2929C31.9804 58.1054 32.2348 58 32.5 58H34.5C34.7652 58 35.0196 57.8946 35.2071 57.7071C35.3946 57.5196 35.5 57.2652 35.5 57C35.5 56.7348 35.3946 56.4804 35.2071 56.2929C35.0196 56.1054 34.7652 56 34.5 56H31.5C31.2348 56 30.9804 55.8946 30.7929 55.7071C30.6054 55.5196 30.5 55.2652 30.5 55C30.5 54.7348 30.6054 54.4804 30.7929 54.2929C30.9804 54.1054 31.2348 54 31.5 54H33.5C33.7652 54 34.0196 53.8946 34.2071 53.7071C34.3946 53.5196 34.5 53.2652 34.5 53C34.5 52.7348 34.3946 52.4804 34.2071 52.2929C34.0196 52.1054 33.7652 52 33.5 52H31.5C31.2348 52 30.9804 51.8946 30.7929 51.7071C30.6054 51.5196 30.5 51.2652 30.5 51C30.5 50.7348 30.6054 50.4804 30.7929 50.2929C30.9804 50.1054 31.2348 50 31.5 50H33.5C33.7652 50 34.0196 49.8946 34.2071 49.7071C34.3946 49.5196 34.5 49.2652 34.5 49C34.5 48.7348 34.3946 48.4804 34.2071 48.2929C34.0196 48.1054 33.7652 48 33.5 48H23.5C23.2348 48 22.9804 47.8946 22.7929 47.7071C22.6054 47.5196 22.5 47.2652 22.5 47C22.5 46.7348 22.6054 46.4804 22.7929 46.2929C22.9804 46.1054 23.2348 46 23.5 46H39.5C39.7108 45.9986 39.9157 45.9307 40.0856 45.806C40.2555 45.6812 40.3816 45.5059 40.4459 45.3052C40.5102 45.1045 40.5095 44.8885 40.4438 44.6883C40.378 44.488 40.2507 44.3136 40.08 44.19L36 41.27C35.7708 41.1046 35.579 40.8928 35.437 40.6483C35.295 40.4039 35.206 40.1324 35.1759 39.8513C35.1457 39.5703 35.175 39.286 35.2618 39.017C35.3487 38.748 35.4912 38.5003 35.68 38.29L46 45.16C46.8199 45.7079 47.7839 46.0003 48.77 46H50.5V58ZM34.86 36.29L34.36 36.78C34.0079 37.1299 33.7262 37.544 33.53 38H33.5V34H37.5V37.1L36.12 36.18C35.9288 36.0521 35.6998 35.9934 35.4706 36.0134C35.2415 36.0334 35.0261 36.131 34.86 36.29ZM50.5 43V44H48.77C48.1793 44.0021 47.6013 43.828 47.11 43.5L39.5 38.43V33C39.5 32.7348 39.3946 32.4804 39.2071 32.2929C39.0196 32.1054 38.7652 32 38.5 32H32.5C32.2348 32 31.9804 32.1054 31.7929 32.2929C31.6054 32.4804 31.5 32.7348 31.5 33V39C31.5 39.2652 31.6054 39.5196 31.7929 39.7071C31.9804 39.8946 32.2348 40 32.5 40H33.18C33.2312 40.5734 33.405 41.1291 33.6897 41.6294C33.9743 42.1298 34.3632 42.5631 34.83 42.9L36.38 44H23.5C22.7044 44 21.9413 44.3161 21.3787 44.8787C20.8161 45.4413 20.5 46.2043 20.5 47C20.5 47.7957 20.8161 48.5587 21.3787 49.1213C21.9413 49.6839 22.7044 50 23.5 50H28.68C28.5636 50.3207 28.5027 50.6589 28.5 51C28.5019 51.7405 28.7801 52.4537 29.28 53C28.7801 53.5463 28.5019 54.2595 28.5 55C28.5027 55.3411 28.5636 55.6793 28.68 56H7.5C7.23478 56 6.98043 55.8946 6.79289 55.7071C6.60536 55.5196 6.5 55.2652 6.5 55V16H54.5V42H51.5C51.2348 42 50.9804 42.1054 50.7929 42.2929C50.6054 42.4804 50.5 42.7348 50.5 43ZM58.5 60H52.5V44H58.5V60Z" fill="url(#paint8_linear_1325_44573)"/>
<path d="M55.5 58C55.7652 58 56.0196 57.8946 56.2071 57.7071C56.3946 57.5196 56.5 57.2652 56.5 57V56C56.5 55.7348 56.3946 55.4804 56.2071 55.2929C56.0196 55.1054 55.7652 55 55.5 55C55.2348 55 54.9804 55.1054 54.7929 55.2929C54.6054 55.4804 54.5 55.7348 54.5 56V57C54.5 57.2652 54.6054 57.5196 54.7929 57.7071C54.9804 57.8946 55.2348 58 55.5 58Z" fill="url(#paint9_linear_1325_44573)"/>
<defs>
<linearGradient id="paint0_linear_1325_44573" x1="15.5" y1="66.092" x2="15.5" y2="5.786" gradientUnits="userSpaceOnUse">
<stop stop-color="#006DF0"/>
<stop offset="1" stop-color="#00E7F0"/>
</linearGradient>
<linearGradient id="paint1_linear_1325_44573" x1="25.5" y1="66.092" x2="25.5" y2="5.786" gradientUnits="userSpaceOnUse">
<stop stop-color="#006DF0"/>
<stop offset="1" stop-color="#00E7F0"/>
</linearGradient>
<linearGradient id="paint2_linear_1325_44573" x1="35.5" y1="66.092" x2="35.5" y2="5.786" gradientUnits="userSpaceOnUse">
<stop stop-color="#006DF0"/>
<stop offset="1" stop-color="#00E7F0"/>
</linearGradient>
<linearGradient id="paint3_linear_1325_44573" x1="15.5" y1="66.092" x2="15.5" y2="5.786" gradientUnits="userSpaceOnUse">
<stop stop-color="#006DF0"/>
<stop offset="1" stop-color="#00E7F0"/>
</linearGradient>
<linearGradient id="paint4_linear_1325_44573" x1="25.5" y1="66.092" x2="25.5" y2="5.786" gradientUnits="userSpaceOnUse">
<stop stop-color="#006DF0"/>
<stop offset="1" stop-color="#00E7F0"/>
</linearGradient>
<linearGradient id="paint5_linear_1325_44573" x1="45.5" y1="66.092" x2="45.5" y2="5.786" gradientUnits="userSpaceOnUse">
<stop stop-color="#006DF0"/>
<stop offset="1" stop-color="#00E7F0"/>
</linearGradient>
<linearGradient id="paint6_linear_1325_44573" x1="45.5" y1="66.092" x2="45.5" y2="5.786" gradientUnits="userSpaceOnUse">
<stop stop-color="#006DF0"/>
<stop offset="1" stop-color="#00E7F0"/>
</linearGradient>
<linearGradient id="paint7_linear_1325_44573" x1="15.5" y1="66.092" x2="15.5" y2="5.786" gradientUnits="userSpaceOnUse">
<stop stop-color="#006DF0"/>
<stop offset="1" stop-color="#00E7F0"/>
</linearGradient>
<linearGradient id="paint8_linear_1325_44573" x1="32.5" y1="66.092" x2="32.5" y2="5.786" gradientUnits="userSpaceOnUse">
<stop stop-color="#006DF0"/>
<stop offset="1" stop-color="#00E7F0"/>
</linearGradient>
<linearGradient id="paint9_linear_1325_44573" x1="55.5" y1="66.092" x2="55.5" y2="5.786" gradientUnits="userSpaceOnUse">
<stop stop-color="#006DF0"/>
<stop offset="1" stop-color="#00E7F0"/>
</linearGradient>
</defs>
</svg>
