<svg width="61" height="60" viewBox="0 0 61 60" fill="none" xmlns="http://www.w3.org/2000/svg">
<g clip-path="url(#clip0_1325_44596)">
<path d="M52.0625 43.125H15.5C13.2622 43.125 11.1161 44.0139 9.53379 45.5963C7.95145 47.1786 7.0625 49.3247 7.0625 51.5625C7.0625 53.8003 7.95145 55.9464 9.53379 57.5287C11.1161 59.1111 13.2622 60 15.5 60H52.0625C52.5598 60 53.0367 59.8025 53.3883 59.4508C53.74 59.0992 53.9375 58.6223 53.9375 58.125V56.25C53.9356 55.9199 53.8457 55.5962 53.6769 55.3125C53.8457 55.0288 53.9356 54.7051 53.9375 54.375V48.75C53.9356 48.4199 53.8457 48.0962 53.6769 47.8125C53.8457 47.5288 53.9356 47.2051 53.9375 46.875V45C53.9375 44.5027 53.74 44.0258 53.3883 43.6742C53.0367 43.3225 52.5598 43.125 52.0625 43.125ZM38.9375 45H44.5625V49.6875L42.3125 48C42.1502 47.8783 41.9528 47.8125 41.75 47.8125C41.5472 47.8125 41.3498 47.8783 41.1875 48L38.9375 49.6875V45ZM52.0625 46.875H49.25C49.0014 46.875 48.7629 46.9738 48.5871 47.1496C48.4113 47.3254 48.3125 47.5639 48.3125 47.8125C48.3125 48.0611 48.4113 48.2996 48.5871 48.4754C48.7629 48.6512 49.0014 48.75 49.25 48.75H52.0625V50.625H49.25C49.0014 50.625 48.7629 50.7238 48.5871 50.8996C48.4113 51.0754 48.3125 51.3139 48.3125 51.5625C48.3125 51.8111 48.4113 52.0496 48.5871 52.2254C48.7629 52.4012 49.0014 52.5 49.25 52.5H52.0625V54.375H15.5C14.7541 54.375 14.0387 54.0787 13.5113 53.5512C12.9838 53.0238 12.6875 52.3084 12.6875 51.5625C12.6875 50.8166 12.9838 50.1012 13.5113 49.5738C14.0387 49.0463 14.7541 48.75 15.5 48.75H34.25C34.4986 48.75 34.7371 48.6512 34.9129 48.4754C35.0887 48.2996 35.1875 48.0611 35.1875 47.8125C35.1875 47.5639 35.0887 47.3254 34.9129 47.1496C34.7371 46.9738 34.4986 46.875 34.25 46.875H15.5C14.2568 46.875 13.0645 47.3689 12.1854 48.2479C11.3064 49.127 10.8125 50.3193 10.8125 51.5625C10.8125 52.8057 11.3064 53.998 12.1854 54.8771C13.0645 55.7561 14.2568 56.25 15.5 56.25H52.0625V58.125H15.5C13.7595 58.125 12.0903 57.4336 10.8596 56.2029C9.6289 54.9722 8.9375 53.303 8.9375 51.5625C8.9375 49.822 9.6289 48.1528 10.8596 46.9221C12.0903 45.6914 13.7595 45 15.5 45H37.0625V51.5625C37.0625 51.7366 37.111 51.9073 37.2025 52.0554C37.294 52.2035 37.425 52.3232 37.5807 52.401C37.7365 52.4789 37.9108 52.5118 38.0842 52.4962C38.2576 52.4806 38.4232 52.417 38.5625 52.3125L41.75 49.9219L44.9375 52.3125C45.0998 52.4342 45.2972 52.5 45.5 52.5C45.7486 52.5 45.9871 52.4012 46.1629 52.2254C46.3387 52.0496 46.4375 51.8111 46.4375 51.5625V45H52.0625V46.875Z" fill="url(#paint0_linear_1325_44596)"/>
<path d="M35.1875 50.625H23.9375C23.6889 50.625 23.4504 50.7238 23.2746 50.8996C23.0988 51.0754 23 51.3139 23 51.5625C23 51.8111 23.0988 52.0496 23.2746 52.2254C23.4504 52.4012 23.6889 52.5 23.9375 52.5H35.1875C35.4361 52.5 35.6746 52.4012 35.8504 52.2254C36.0262 52.0496 36.125 51.8111 36.125 51.5625C36.125 51.3139 36.0262 51.0754 35.8504 50.8996C35.6746 50.7238 35.4361 50.625 35.1875 50.625Z" fill="url(#paint1_linear_1325_44596)"/>
<path d="M20.1875 50.625H18.3125C18.0639 50.625 17.8254 50.7238 17.6496 50.8996C17.4738 51.0754 17.375 51.3139 17.375 51.5625C17.375 51.8111 17.4738 52.0496 17.6496 52.2254C17.8254 52.4012 18.0639 52.5 18.3125 52.5H20.1875C20.4361 52.5 20.6746 52.4012 20.8504 52.2254C21.0262 52.0496 21.125 51.8111 21.125 51.5625C21.125 51.3139 21.0262 51.0754 20.8504 50.8996C20.6746 50.7238 20.4361 50.625 20.1875 50.625Z" fill="url(#paint2_linear_1325_44596)"/>
<path d="M28.9147 3.44063C29.0668 3.05985 29.1233 2.64761 29.0792 2.23996C29.0351 1.83231 28.8919 1.44166 28.6619 1.10218C28.4319 0.762709 28.1223 0.484747 27.7601 0.292607C27.3979 0.100467 26.9941 2.58768e-06 26.5841 0L16.6034 0C16.1934 0.000167455 15.7896 0.100775 15.4274 0.293027C15.0652 0.48528 14.7556 0.763325 14.5257 1.10286C14.2957 1.44239 14.1525 1.83308 14.1084 2.24077C14.0643 2.64845 14.1208 3.06073 14.2728 3.44156L15.5431 6.61594C15.1316 6.71185 14.7646 6.94393 14.5015 7.27456C14.2385 7.60519 14.0948 8.01498 14.0938 8.4375V11.25C14.0938 11.7473 14.2913 12.2242 14.6429 12.5758C14.9946 12.9275 15.4715 13.125 15.9688 13.125V35.625C15.9688 37.1168 16.5614 38.5476 17.6163 39.6025C18.6712 40.6574 20.1019 41.25 21.5938 41.25C23.0856 41.25 24.5163 40.6574 25.5712 39.6025C26.6261 38.5476 27.2188 37.1168 27.2188 35.625V13.125C27.716 13.125 28.1929 12.9275 28.5446 12.5758C28.8962 12.2242 29.0938 11.7473 29.0938 11.25V8.4375C29.0927 8.01498 28.949 7.60519 28.686 7.27456C28.4229 6.94393 28.0559 6.71185 27.6444 6.61594L28.9147 3.44063ZM16.6034 1.875H18.7812V3.75C18.7812 3.99864 18.88 4.2371 19.0558 4.41291C19.2317 4.58873 19.4701 4.6875 19.7188 4.6875C19.9674 4.6875 20.2058 4.58873 20.3817 4.41291C20.5575 4.2371 20.6562 3.99864 20.6562 3.75V1.875H22.5312V3.75C22.5312 3.99864 22.63 4.2371 22.8058 4.41291C22.9817 4.58873 23.2201 4.6875 23.4688 4.6875C23.7174 4.6875 23.9558 4.58873 24.1317 4.41291C24.3075 4.2371 24.4062 3.99864 24.4062 3.75V1.875H26.5841C26.7523 1.87525 26.9136 1.9422 27.0326 2.06117C27.1516 2.18014 27.2185 2.34143 27.2188 2.50969C27.2184 2.59092 27.2028 2.67137 27.1728 2.74688L25.6466 6.5625H17.5409L16.0147 2.74688C15.9847 2.67137 15.9691 2.59092 15.9688 2.50969C15.969 2.34143 16.0359 2.18014 16.1549 2.06117C16.2739 1.9422 16.4352 1.87525 16.6034 1.875ZM25.3438 35.625C25.3438 36.6196 24.9487 37.5734 24.2454 38.2766C23.5421 38.9799 22.5883 39.375 21.5938 39.375C20.5992 39.375 19.6454 38.9799 18.9421 38.2766C18.2388 37.5734 17.8438 36.6196 17.8438 35.625V28.125H25.3438V35.625ZM25.3438 15H23.4688C23.2201 15 22.9817 15.0988 22.8058 15.2746C22.63 15.4504 22.5312 15.6889 22.5312 15.9375C22.5312 16.1861 22.63 16.4246 22.8058 16.6004C22.9817 16.7762 23.2201 16.875 23.4688 16.875H25.3438V18.75H23.4688C23.2201 18.75 22.9817 18.8488 22.8058 19.0246C22.63 19.2004 22.5312 19.4389 22.5312 19.6875C22.5312 19.9361 22.63 20.1746 22.8058 20.3504C22.9817 20.5262 23.2201 20.625 23.4688 20.625H25.3438V22.5H23.4688C23.2201 22.5 22.9817 22.5988 22.8058 22.7746C22.63 22.9504 22.5312 23.1889 22.5312 23.4375C22.5312 23.6861 22.63 23.9246 22.8058 24.1004C22.9817 24.2762 23.2201 24.375 23.4688 24.375H25.3438V26.25H17.8438V13.125H25.3438V15ZM26.2812 11.25H15.9688V8.4375H27.2188V11.25H26.2812Z" fill="url(#paint3_linear_1325_44596)"/>
<path d="M46.7272 3.44063C46.8793 3.05985 46.9358 2.64761 46.8917 2.23996C46.8476 1.83231 46.7044 1.44166 46.4744 1.10218C46.2444 0.762709 45.9348 0.484747 45.5726 0.292607C45.2104 0.100467 44.8066 2.58768e-06 44.3966 0L34.4159 0C34.0059 0.000167455 33.6021 0.100775 33.2399 0.293027C32.8777 0.48528 32.5681 0.763325 32.3382 1.10286C32.1082 1.44239 31.965 1.83308 31.9209 2.24077C31.8768 2.64845 31.9333 3.06073 32.0853 3.44156L33.3556 6.61594C32.9441 6.71185 32.5771 6.94393 32.314 7.27456C32.051 7.60519 31.9073 8.01498 31.9062 8.4375V11.25C31.9062 11.7473 32.1038 12.2242 32.4554 12.5758C32.8071 12.9275 33.284 13.125 33.7812 13.125V35.625C33.7812 37.1168 34.3739 38.5476 35.4288 39.6025C36.4837 40.6574 37.9144 41.25 39.4062 41.25C40.8981 41.25 42.3288 40.6574 43.3837 39.6025C44.4386 38.5476 45.0312 37.1168 45.0312 35.625V13.125C45.5285 13.125 46.0054 12.9275 46.3571 12.5758C46.7087 12.2242 46.9062 11.7473 46.9062 11.25V8.4375C46.9052 8.01498 46.7615 7.60519 46.4985 7.27456C46.2354 6.94393 45.8684 6.71185 45.4569 6.61594L46.7272 3.44063ZM34.4159 1.875H36.5938V3.75C36.5938 3.99864 36.6925 4.2371 36.8683 4.41291C37.0442 4.58873 37.2826 4.6875 37.5312 4.6875C37.7799 4.6875 38.0183 4.58873 38.1942 4.41291C38.37 4.2371 38.4688 3.99864 38.4688 3.75V1.875H40.3438V3.75C40.3438 3.99864 40.4425 4.2371 40.6183 4.41291C40.7942 4.58873 41.0326 4.6875 41.2812 4.6875C41.5299 4.6875 41.7683 4.58873 41.9442 4.41291C42.12 4.2371 42.2188 3.99864 42.2188 3.75V1.875H44.3966C44.5648 1.87525 44.7261 1.9422 44.8451 2.06117C44.9641 2.18014 45.031 2.34143 45.0312 2.50969C45.0309 2.59092 45.0153 2.67137 44.9853 2.74688L43.4591 6.5625H35.3534L33.8272 2.74688C33.7972 2.67137 33.7816 2.59092 33.7812 2.50969C33.7815 2.34143 33.8484 2.18014 33.9674 2.06117C34.0864 1.9422 34.2477 1.87525 34.4159 1.875ZM43.1562 35.625C43.1562 36.6196 42.7612 37.5734 42.0579 38.2766C41.3546 38.9799 40.4008 39.375 39.4062 39.375C38.4117 39.375 37.4579 38.9799 36.7546 38.2766C36.0513 37.5734 35.6562 36.6196 35.6562 35.625V28.125H43.1562V35.625ZM43.1562 15H41.2812C41.0326 15 40.7942 15.0988 40.6183 15.2746C40.4425 15.4504 40.3438 15.6889 40.3438 15.9375C40.3438 16.1861 40.4425 16.4246 40.6183 16.6004C40.7942 16.7762 41.0326 16.875 41.2812 16.875H43.1562V18.75H41.2812C41.0326 18.75 40.7942 18.8488 40.6183 19.0246C40.4425 19.2004 40.3438 19.4389 40.3438 19.6875C40.3438 19.9361 40.4425 20.1746 40.6183 20.3504C40.7942 20.5262 41.0326 20.625 41.2812 20.625H43.1562V22.5H41.2812C41.0326 22.5 40.7942 22.5988 40.6183 22.7746C40.4425 22.9504 40.3438 23.1889 40.3438 23.4375C40.3438 23.6861 40.4425 23.9246 40.6183 24.1004C40.7942 24.2762 41.0326 24.375 41.2812 24.375H43.1562V26.25H35.6562V13.125H43.1562V15ZM44.0938 11.25H33.7812V8.4375H45.0312V11.25H44.0938Z" fill="url(#paint4_linear_1325_44596)"/>
</g>
<defs>
<linearGradient id="paint0_linear_1325_44596" x1="11.8916" y1="72.0947" x2="73.2397" y2="10.7466" gradientUnits="userSpaceOnUse">
<stop stop-color="#0DAFD4"/>
<stop offset="1" stop-color="#9D31FE"/>
</linearGradient>
<linearGradient id="paint1_linear_1325_44596" x1="10.4609" y1="70.6641" x2="71.8091" y2="9.31594" gradientUnits="userSpaceOnUse">
<stop stop-color="#0DAFD4"/>
<stop offset="1" stop-color="#9D31FE"/>
</linearGradient>
<linearGradient id="paint2_linear_1325_44596" x1="5.30469" y1="65.5078" x2="66.6528" y2="4.15969" gradientUnits="userSpaceOnUse">
<stop stop-color="#0DAFD4"/>
<stop offset="1" stop-color="#9D31FE"/>
</linearGradient>
<linearGradient id="paint3_linear_1325_44596" x1="-9.9175" y1="50.2856" x2="51.4306" y2="-11.0625" gradientUnits="userSpaceOnUse">
<stop stop-color="#0DAFD4"/>
<stop offset="1" stop-color="#9D31FE"/>
</linearGradient>
<linearGradient id="paint4_linear_1325_44596" x1="-1.01125" y1="59.1919" x2="60.3369" y2="-2.15625" gradientUnits="userSpaceOnUse">
<stop stop-color="#0DAFD4"/>
<stop offset="1" stop-color="#9D31FE"/>
</linearGradient>
<clipPath id="clip0_1325_44596">
<rect width="60" height="60" fill="white" transform="translate(0.5)"/>
</clipPath>
</defs>
</svg>
