<svg width="65" height="64" viewBox="0 0 65 64" fill="none" xmlns="http://www.w3.org/2000/svg">
<path d="M57.8892 31.2198C53.7061 31.2191 49.6237 29.9364 46.1919 27.5444V6.70468C46.1919 6.43946 46.0866 6.18511 45.899 5.99757C45.7115 5.81003 45.4571 5.70468 45.1919 5.70468H35.6152V5.45614C35.6152 5.19093 35.5099 4.93658 35.3223 4.74905C35.1348 4.56151 34.8805 4.45615 34.6152 4.45614H29.5322C29.1903 3.8626 28.698 3.36963 28.105 3.02687C27.5119 2.68411 26.839 2.50365 26.154 2.50366C25.469 2.50368 24.7962 2.68417 24.2031 3.02696C23.6101 3.36975 23.1178 3.86275 22.7759 4.4563L17.6929 4.45614C17.5409 4.46084 17.3917 4.49847 17.2557 4.56642C17.1196 4.63437 17 4.73103 16.9049 4.84973C16.8098 4.96843 16.7416 5.10634 16.7051 5.25395C16.6685 5.40155 16.6643 5.55534 16.693 5.7047H7.11624C6.85102 5.7047 6.59667 5.81005 6.40913 5.99759C6.2216 6.18513 6.11624 6.43948 6.11624 6.7047V57.4718C6.11624 57.737 6.2216 57.9913 6.40913 58.1789C6.59667 58.3664 6.85102 58.4718 7.11624 58.4718H45.1919C45.338 58.4683 45.4819 58.4363 45.6157 58.3775L51.8613 55.4542C56.1929 53.4268 58.8838 49.5929 58.8838 45.4488V32.2198C58.8838 31.9555 58.7792 31.702 58.5929 31.5146C58.4065 31.3272 58.1535 31.2212 57.8892 31.2198ZM44.1919 7.70468V27.5445L43.2881 28.1275C42.8615 28.403 42.4165 28.6571 41.9614 28.8978V11.4215C41.9614 11.1563 41.8561 10.9019 41.6685 10.7144C41.481 10.5269 41.2267 10.4215 40.9614 10.4215H35.6152V7.70468H44.1919ZM32.4946 31.2198C32.2366 31.2218 31.9894 31.3238 31.8051 31.5044C31.6207 31.685 31.5137 31.9301 31.5064 32.1881H16.3179C16.056 32.1932 15.8067 32.3008 15.6233 32.4878C15.4399 32.6748 15.3372 32.9262 15.3372 33.1881C15.3372 33.45 15.44 33.7014 15.6233 33.8884C15.8067 34.0754 16.0561 34.183 16.318 34.1881H31.5V36.6939H16.3179C16.0552 36.6978 15.8047 36.8049 15.6203 36.992C15.436 37.1792 15.3326 37.4313 15.3326 37.694C15.3326 37.9566 15.436 38.2088 15.6203 38.3959C15.8047 38.583 16.0553 38.69 16.3179 38.6939H31.5V41.1993H16.3179C16.0552 41.2032 15.8047 41.3103 15.6203 41.4974C15.436 41.6845 15.3326 41.9367 15.3326 42.1993C15.3326 42.462 15.436 42.7141 15.6203 42.9012C15.8047 43.0884 16.0553 43.1954 16.3179 43.1993H31.5C31.5159 43.2785 31.483 45.7012 31.5104 45.7052H16.3179C16.0553 45.7093 15.8049 45.8164 15.6207 46.0035C15.4365 46.1906 15.3333 46.4427 15.3333 46.7052C15.3333 46.9678 15.4365 47.2198 15.6208 47.4069C15.805 47.594 16.0554 47.7011 16.3179 47.7052H31.7703C32.1922 49.391 33.0196 50.9482 34.1805 52.2413H12.3467V12.4215H16.7656C16.8373 12.6094 16.9644 12.7711 17.1299 12.8854C17.2955 12.9997 17.4917 13.0611 17.6929 13.0616H34.6152C34.8164 13.0611 35.0127 12.9997 35.1782 12.8854C35.3437 12.7711 35.4708 12.6094 35.5426 12.4215H39.9614V29.8046C37.5793 30.7264 35.0489 31.206 32.4946 31.2198ZM18.6929 6.45614H23.4229C23.6329 6.45607 23.8376 6.38992 24.008 6.26706C24.1783 6.1442 24.3057 5.97085 24.3721 5.77157C24.4986 5.39936 24.7385 5.07611 25.0581 4.8472C25.3777 4.61828 25.761 4.49519 26.1541 4.4952C26.5473 4.49521 26.9305 4.61832 27.2501 4.84726C27.5697 5.07619 27.8096 5.39945 27.9361 5.77167C28.0025 5.97093 28.1299 6.14425 28.3003 6.26709C28.4706 6.38993 28.6753 6.45607 28.8853 6.45614H33.6153V11.0616H18.6929V6.45614ZM8.11622 7.70468H16.6929V10.4215H11.3467C11.0815 10.4215 10.8271 10.5268 10.6396 10.7144C10.452 10.9019 10.3467 11.1563 10.3467 11.4215V53.2413C10.3467 53.5065 10.452 53.7609 10.6396 53.9484C10.8271 54.1359 11.0815 54.2413 11.3467 54.2413H36.4265C37.089 54.7052 37.7902 55.111 38.5225 55.4542L40.6965 56.4718H8.11622V7.70468ZM56.8838 45.4488C56.8838 48.8082 54.6343 51.9478 51.0137 53.6427L45.1919 56.3678L39.3701 53.6427C35.7495 51.9478 33.5 48.8082 33.5 45.4488V33.193C37.6855 33.0017 41.7347 31.6464 45.1919 29.2794C48.6444 31.6558 52.6964 33.0121 56.8838 33.1929L56.8838 45.4488ZM44.6499 30.7657C41.999 32.692 38.8091 33.7353 35.5322 33.7476C35.2679 33.749 35.0149 33.855 34.8286 34.0424C34.6422 34.2298 34.5376 34.4833 34.5376 34.7476V44.8101C34.6073 46.5021 35.1604 48.1387 36.1316 49.526C37.1027 50.9133 38.4511 51.9932 40.0171 52.6378C40.1279 52.6564 45.2515 55.1846 45.1919 54.9557C45.0561 55.2535 50.3112 52.6042 50.3667 52.6379C51.9327 51.9933 53.2811 50.9134 54.2522 49.5261C55.2234 48.1387 55.7765 46.5022 55.8462 44.8101V34.7476C55.8462 34.4833 55.7416 34.2298 55.5553 34.0424C55.3689 33.855 55.1159 33.749 54.8516 33.7476C51.9935 33.751 49.1923 32.949 46.7691 31.4336C46.2062 31.1192 45.3394 30.2456 44.6499 30.7657ZM53.8462 35.7144V44.8101C53.7731 46.121 53.327 47.3837 52.5604 48.4496C51.7938 49.5154 50.7386 50.34 49.519 50.8263L45.1919 52.8516L40.8647 50.8263C39.6452 50.34 38.59 49.5154 37.8234 48.4496C37.0568 47.3837 36.6106 46.121 36.5376 44.8101V35.7144C39.6333 35.5427 42.6244 34.534 45.1919 32.796C47.7593 34.5341 50.7505 35.5428 53.8462 35.7144ZM42.0161 45.3443L49.9253 37.7145C50.1173 37.5365 50.3714 37.441 50.6331 37.4483C50.8948 37.4556 51.1432 37.5652 51.325 37.7536C51.5068 37.9421 51.6074 38.1942 51.6054 38.456C51.6033 38.7178 51.4987 38.9684 51.314 39.1539L42.3023 47.8473C42.1826 47.9627 42.0361 48.0464 41.8759 48.091C41.7158 48.1355 41.547 48.1394 41.385 48.1023C41.2229 48.0653 41.0727 47.9883 40.9478 47.8786C40.823 47.7688 40.7275 47.6297 40.6699 47.4737L38.8262 42.4772C38.7396 42.2296 38.7537 41.958 38.8655 41.7207C38.9772 41.4834 39.1778 41.2996 39.4238 41.2088C39.6699 41.1179 39.9417 41.1274 40.1809 41.2352C40.42 41.3429 40.6072 41.5403 40.7022 41.7848L42.0161 45.3443ZM31.8775 19.0191H29.062V16.2037C29.062 15.9385 28.9566 15.6841 28.7691 15.4966C28.5816 15.3091 28.3272 15.2037 28.062 15.2037H24.2466C23.9814 15.2037 23.727 15.3091 23.5395 15.4966C23.352 15.6841 23.2466 15.9385 23.2466 16.2037V19.0191H20.4312C20.1659 19.0191 19.9116 19.1245 19.7241 19.312C19.5365 19.4995 19.4312 19.7539 19.4312 20.0191V23.8345C19.4312 24.0997 19.5365 24.3541 19.7241 24.5416C19.9116 24.7291 20.1659 24.8345 20.4312 24.8345H23.2466V27.65C23.2466 27.9152 23.352 28.1695 23.5395 28.3571C23.727 28.5446 23.9814 28.65 24.2466 28.65H28.062C28.3272 28.65 28.5816 28.5446 28.7691 28.3571C28.9567 28.1696 29.062 27.9152 29.062 27.65V24.8346H31.8774C32.0088 24.8346 32.1388 24.8087 32.2601 24.7584C32.3815 24.7082 32.4917 24.6345 32.5845 24.5417C32.6774 24.4488 32.7511 24.3386 32.8013 24.2172C32.8516 24.0959 32.8774 23.9659 32.8774 23.8346V20.0191C32.8774 19.7539 32.7721 19.4995 32.5845 19.312C32.397 19.1245 32.1427 19.0191 31.8775 19.0191ZM30.8775 22.8345C26.5296 22.844 27.0788 22.3286 27.0621 26.65H25.2466C25.2371 22.3021 25.7525 22.8513 21.4311 22.8346V21.0191C25.7785 21.0094 25.2299 21.5257 25.2465 17.2037H27.062V20.0191C27.062 20.2843 27.1674 20.5386 27.3549 20.7262C27.5424 20.9137 27.7968 21.0191 28.062 21.0191H30.8774L30.8775 22.8345Z" fill="url(#paint0_linear_1325_44607)"/>
<defs>
<linearGradient id="paint0_linear_1325_44607" x1="6.11601" y1="30.4881" x2="58.884" y2="30.4881" gradientUnits="userSpaceOnUse">
<stop stop-color="#00C0FF"/>
<stop offset="1" stop-color="#5558FF"/>
</linearGradient>
</defs>
</svg>
