<svg width="80" height="80" viewBox="0 0 80 80" fill="none" xmlns="http://www.w3.org/2000/svg">
<path fill-rule="evenodd" clip-rule="evenodd" d="M13.4475 4.84375H39.1656C43.4368 4.84375 46.9315 8.33844 46.9315 12.6097V67.3903C46.9315 71.6616 43.4368 75.1562 39.1656 75.1562H13.4475C9.17621 75.1562 5.68152 71.6616 5.68152 67.3903V12.6097C5.68152 8.33844 9.17621 4.84375 13.4475 4.84375Z" fill="#AAAAAF"/>
<path fill-rule="evenodd" clip-rule="evenodd" d="M42.865 5.7876C44.6485 6.76182 46.0139 8.41541 46.607 10.3943L5.68152 61.6637V52.3692L42.865 5.7876ZM46.9315 15.429L5.68152 67.1049V67.3903C5.68152 69.6753 6.68183 71.7376 8.26589 73.162L46.9315 24.7238V15.429Z" fill="#BFC1C2"/>
<path fill-rule="evenodd" clip-rule="evenodd" d="M13.4475 3.59375H39.1656C44.127 3.59375 48.1815 7.64828 48.1815 12.6097V67.3903C48.1815 72.3516 44.1268 76.4062 39.1656 76.4062H13.4475C8.48621 76.4062 4.43152 72.3516 4.43152 67.3903V12.6097C4.43152 7.64844 8.48621 3.59375 13.4475 3.59375ZM6.93152 62.4H45.6815V12.6097C45.6815 9.02844 42.7468 6.09375 39.1656 6.09375H13.4475C9.86621 6.09375 6.93152 9.02844 6.93152 12.6097V62.4Z" fill="#E6A025"/>
<path fill-rule="evenodd" clip-rule="evenodd" d="M44.5862 74.5838C43.0751 75.7266 41.1965 76.4063 39.1656 76.4063H13.4475C8.48621 76.4063 4.43152 72.3516 4.43152 67.3904V12.6098C4.43152 10.0365 5.52277 7.70712 7.26511 6.06103C8.77621 4.91821 10.655 4.23853 12.6857 4.23853H38.4039C43.3653 4.23853 47.4198 8.29306 47.4198 13.2545V68.0351C47.4198 70.6084 46.3287 72.9376 44.5862 74.5838ZM6.1698 63.0446H45.6815V12.6098C45.6815 9.02853 42.7468 6.09384 39.1656 6.09384H13.4475C11.6746 6.09384 10.0606 6.81337 8.88214 7.97415C7.24261 9.16103 6.1698 11.0893 6.1698 13.2543V63.0446Z" fill="#FFB229"/>
<path fill-rule="evenodd" clip-rule="evenodd" d="M14.4121 12.0576C13.7218 12.0576 13.1621 11.4979 13.1621 10.8076C13.1621 10.1173 13.7218 9.55762 14.4121 9.55762H15.1827C15.873 9.55762 16.4327 10.1173 16.4327 10.8076C16.4327 11.4979 15.873 12.0576 15.1827 12.0576H14.4121ZM22.6985 12.0576C22.0082 12.0576 21.4485 11.4979 21.4485 10.8076C21.4485 10.1173 22.0082 9.55762 22.6985 9.55762H29.9146C30.6049 9.55762 31.1646 10.1173 31.1646 10.8076C31.1646 11.4979 30.6049 12.0576 29.9146 12.0576H22.6985Z" fill="#4E434D"/>
<path fill-rule="evenodd" clip-rule="evenodd" d="M13.4629 9.99425C13.6921 9.7269 14.0323 9.55753 14.4121 9.55753H15.1827C15.873 9.55753 16.4327 10.1172 16.4327 10.8075C16.4327 10.9486 16.4093 11.0841 16.3663 11.2107C16.1371 11.478 15.797 11.6474 15.4171 11.6474H14.6465C13.9562 11.6474 13.3965 11.0877 13.3965 10.3974C13.3965 10.2563 13.4199 10.1207 13.4629 9.99425ZM22.9327 11.6472C22.2424 11.6472 21.6827 11.0875 21.6827 10.3972C21.6827 10.2561 21.7062 10.1207 21.7491 9.99409C21.9784 9.72675 22.3185 9.55737 22.6984 9.55737H29.9145C30.6048 9.55737 31.1645 10.1171 31.1645 10.8074C31.1645 10.9485 31.141 11.0839 31.098 11.2105C30.8688 11.4778 30.5287 11.6472 30.1488 11.6472H22.9327Z" fill="#615260"/>
<path fill-rule="evenodd" clip-rule="evenodd" d="M22.6986 70.3491C22.0083 70.3491 21.4486 69.7894 21.4486 69.0991C21.4486 68.4088 22.0083 67.8491 22.6986 67.8491H29.9147C30.605 67.8491 31.1647 68.4088 31.1647 69.0991C31.1647 69.7894 30.605 70.3491 29.9147 70.3491H22.6986Z" fill="#4E434D"/>
<path fill-rule="evenodd" clip-rule="evenodd" d="M22.6986 70.3492C22.0083 70.3492 21.4486 69.7895 21.4486 69.0992C21.4486 68.8815 21.5042 68.677 21.602 68.4987C21.815 68.3304 22.0839 68.23 22.3763 68.23H29.5924C30.2827 68.23 30.8424 68.7897 30.8424 69.48C30.8424 69.6976 30.7867 69.9022 30.6889 70.0805C30.476 70.2487 30.207 70.3492 29.9147 70.3492H22.6986Z" fill="#615260"/>
<path fill-rule="evenodd" clip-rule="evenodd" d="M36.1373 13.3965H65.6255C67.764 13.3965 69.7072 14.2705 71.1151 15.6784C72.523 17.0863 73.3969 19.0295 73.3969 21.1679V50.6563C73.3969 52.7948 72.523 54.7379 71.1151 56.1459C69.7071 57.5538 67.764 58.4277 65.6255 58.4277H36.1373C33.9988 58.4277 32.0557 57.5538 30.6477 56.1459C29.2399 54.7379 28.3658 52.7948 28.3658 50.6563V21.168C28.3658 19.0296 29.2397 17.0865 30.6477 15.6785C32.0557 14.2705 33.9988 13.3965 36.1373 13.3965Z" fill="#CFCFCF"/>
<path fill-rule="evenodd" clip-rule="evenodd" d="M69.8366 57.1805C68.6216 57.9687 67.1749 58.4276 65.6255 58.4276H36.1373C33.9988 58.4276 32.0557 57.5537 30.6477 56.1457C29.2399 54.7377 28.3658 52.7946 28.3658 50.6562V21.1679C28.3658 19.4538 28.9274 17.8652 29.8754 16.5771C31.0904 15.789 32.5371 15.3301 34.0865 15.3301H63.5747C65.7132 15.3301 67.6565 16.2041 69.0643 17.612C70.4722 19.0199 71.3462 20.963 71.3462 23.1015V52.5898C71.3462 54.3038 70.7846 55.8924 69.8366 57.1805Z" fill="#E6E6E6"/>
<path fill-rule="evenodd" clip-rule="evenodd" d="M59.4389 12.5371C59.4389 11.8468 59.9986 11.2871 60.6889 11.2871C61.3792 11.2871 61.9389 11.8468 61.9389 12.5371V16.7559C61.9389 17.4462 61.3792 18.0059 60.6889 18.0059C59.9986 18.0059 59.4389 17.4462 59.4389 16.7559V12.5371ZM39.8242 12.5371C39.8242 11.8468 40.3839 11.2871 41.0742 11.2871C41.7645 11.2871 42.3242 11.8468 42.3242 12.5371V16.7559C42.3242 17.4462 41.7645 18.0059 41.0742 18.0059C40.3839 18.0059 39.8242 17.4462 39.8242 16.7559V12.5371Z" fill="#E6A025"/>
<path fill-rule="evenodd" clip-rule="evenodd" d="M59.4389 12.5371C59.4389 12.3196 59.4945 12.115 59.5922 11.9369C59.7336 11.8815 59.8877 11.8508 60.0488 11.8508C60.7391 11.8508 61.2988 12.4105 61.2988 13.1008V17.3197C61.2988 17.5372 61.2431 17.7418 61.1455 17.9199C61.0041 17.9754 60.85 18.006 60.6889 18.006C59.9986 18.006 59.4389 17.4463 59.4389 16.756V12.5371ZM39.9775 11.9369C40.1189 11.8815 40.273 11.8508 40.4341 11.8508C41.1244 11.8508 41.6841 12.4105 41.6841 13.1008V17.3197C41.6841 17.5372 41.6284 17.7418 41.5308 17.9199C41.3894 17.9754 41.2353 18.006 41.0742 18.006C40.3839 18.006 39.8242 17.4463 39.8242 16.756V12.5372C39.8242 12.3196 39.8797 12.115 39.9775 11.9369Z" fill="#FFB229"/>
<path fill-rule="evenodd" clip-rule="evenodd" d="M61.9396 24.3318C62.6299 24.3318 63.1896 24.8915 63.1896 25.5818C63.1896 26.2721 62.6299 26.8318 61.9396 26.8318H39.8234C39.1331 26.8318 38.5734 26.2721 38.5734 25.5818C38.5734 24.8915 39.1331 24.3318 39.8234 24.3318H61.9396ZM61.9396 44.9924C62.6299 44.9924 63.1896 45.5521 63.1896 46.2424C63.1896 46.9327 62.6299 47.4924 61.9396 47.4924H39.8234C39.1331 47.4924 38.5734 46.9327 38.5734 46.2424C38.5734 45.5521 39.1331 44.9924 39.8234 44.9924H61.9396ZM61.9396 34.6621C62.6299 34.6621 63.1896 35.2218 63.1896 35.9121C63.1896 36.6024 62.6299 37.1621 61.9396 37.1621H39.8234C39.1331 37.1621 38.5734 36.6024 38.5734 35.9121C38.5734 35.2218 39.1331 34.6621 39.8234 34.6621H61.9396Z" fill="#4E434D"/>
<path fill-rule="evenodd" clip-rule="evenodd" d="M62.7109 26.5654C62.4984 26.7323 62.2306 26.8317 61.9396 26.8317H39.8234C39.1331 26.8317 38.5734 26.272 38.5734 25.5817C38.5734 25.5281 38.5768 25.4751 38.5834 25.4232C38.7959 25.2565 39.0637 25.157 39.3546 25.157H61.4709C62.1612 25.157 62.7209 25.7167 62.7209 26.407C62.7209 26.4607 62.7174 26.5135 62.7109 26.5654ZM61.4709 45.8176C62.1612 45.8176 62.7209 46.3773 62.7209 47.0676C62.7209 47.1214 62.7174 47.1742 62.7109 47.226C62.4984 47.3929 62.2306 47.4923 61.9396 47.4923H39.8234C39.1331 47.4923 38.5734 46.9326 38.5734 46.2423C38.5734 46.1887 38.5768 46.1357 38.5834 46.0839C38.7959 45.917 39.0637 45.8176 39.3546 45.8176H61.4709ZM61.4709 35.4873C62.1612 35.4873 62.7209 36.047 62.7209 36.7373C62.7209 36.791 62.7174 36.8439 62.7109 36.8957C62.4984 37.0626 62.2306 37.162 61.9396 37.162H39.8234C39.1331 37.162 38.5734 36.6023 38.5734 35.912C38.5734 35.8582 38.5768 35.8054 38.5834 35.7535C38.7959 35.5868 39.0637 35.4873 39.3546 35.4873H61.4709Z" fill="#615260"/>
<path d="M73.9465 49.4662C75.7124 41.9956 71.0879 34.5079 63.6173 32.742C56.1467 30.9761 48.6591 35.6006 46.8931 43.0712C45.1272 50.5418 49.7518 58.0295 57.2224 59.7954C64.6929 61.5613 72.1806 56.9367 73.9465 49.4662Z" fill="#E6E6E6"/>
<path fill-rule="evenodd" clip-rule="evenodd" d="M60.4164 31.0903C64.6003 31.0903 68.3884 32.7863 71.1305 35.5283C73.8725 38.2703 75.5686 42.0583 75.5686 46.2422C75.5686 50.4263 73.8727 54.2142 71.1305 56.9563C68.3884 59.6983 64.6005 61.3942 60.4164 61.3942C56.2325 61.3942 52.4444 59.6981 49.7025 56.9563C46.9605 54.2142 45.2645 50.4263 45.2645 46.2422C45.2645 42.0583 46.9605 38.2702 49.7025 35.5283C52.4444 32.7863 56.2323 31.0903 60.4164 31.0903ZM69.3628 37.296C67.0733 35.0064 63.9103 33.5903 60.4164 33.5903C56.9225 33.5903 53.7595 35.0064 51.47 37.296C49.1805 39.5855 47.7644 42.7486 47.7644 46.2424C47.7644 49.7363 49.1805 52.8994 51.47 55.1888C53.7595 57.4783 56.9225 58.8944 60.4164 58.8944C63.9103 58.8944 67.0734 57.4783 69.3628 55.1888C71.6523 52.8992 73.0684 49.7363 73.0684 46.2424C73.0684 42.7485 71.6523 39.5853 69.3628 37.296Z" fill="#E4404D"/>
<path fill-rule="evenodd" clip-rule="evenodd" d="M60.0677 61.3903C56.0223 61.2989 52.3679 59.622 49.7023 56.9564C46.9602 54.2143 45.2643 50.4264 45.2643 46.2423C45.2643 42.0584 46.9602 38.2703 49.7023 35.5284C52.3679 32.8628 56.0223 31.1859 60.0677 31.0945C64.1133 31.1859 67.7676 32.8626 70.4333 35.5284C73.1754 38.2704 74.8713 42.0584 74.8713 46.2423C74.8713 50.4264 73.1754 54.2143 70.4333 56.9564C67.7676 59.6221 64.1133 61.299 60.0677 61.3903ZM60.0677 33.5953C59.9519 33.5921 59.8358 33.5904 59.7193 33.5904C56.2254 33.5904 53.0624 35.0065 50.7729 37.296C48.4833 39.5856 47.0673 42.7487 47.0673 46.2424C47.0673 49.7364 48.4833 52.8995 50.7729 55.1889C53.0624 57.4784 56.2254 58.8945 59.7193 58.8945C59.8358 58.8945 59.9521 58.8928 60.0677 58.8896C60.1835 58.8928 60.2996 58.8945 60.4162 58.8945C63.9101 58.8945 67.0732 57.4784 69.3626 55.1889C71.6521 52.8993 73.0682 49.7364 73.0682 46.2424C73.0682 42.7485 71.6521 39.5856 69.3626 37.296C67.073 35.0065 63.9101 33.5904 60.4162 33.5904C60.2998 33.5904 60.1835 33.5921 60.0677 33.5953Z" fill="#FD4755"/>
<path fill-rule="evenodd" clip-rule="evenodd" d="M65.8059 44.9923C66.4962 44.9923 67.0559 45.552 67.0559 46.2423C67.0559 46.9326 66.4962 47.4923 65.8059 47.4923H60.4164C59.7261 47.4923 59.1664 46.9326 59.1664 46.2423V39.1296C59.1664 38.4393 59.7261 37.8796 60.4164 37.8796C61.1067 37.8796 61.6664 38.4393 61.6664 39.1296V44.9923H65.8059Z" fill="#4E434D"/>
<path fill-rule="evenodd" clip-rule="evenodd" d="M66.3115 47.3859C66.157 47.4543 65.9859 47.4925 65.8059 47.4925H60.4164C59.7261 47.4925 59.1664 46.9328 59.1664 46.2425V39.1298C59.1664 38.8687 59.2465 38.6264 59.3834 38.4259C59.5379 38.3575 59.709 38.3193 59.889 38.3193C60.5794 38.3193 61.139 38.879 61.139 39.5693V45.432H65.2786C65.9689 45.432 66.5286 45.9917 66.5286 46.682C66.5286 46.9429 66.4484 47.1854 66.3115 47.3859Z" fill="#615260"/>
</svg>
