<svg width="84" height="80" viewBox="0 0 84 80" fill="none" xmlns="http://www.w3.org/2000/svg">
<path d="M43.5918 80C65.6832 80 83.5918 62.0914 83.5918 40C83.5918 17.9086 65.6832 0 43.5918 0C21.5004 0 3.5918 17.9086 3.5918 40C3.5918 62.0914 21.5004 80 43.5918 80Z" fill="#05E39C"/>
<path d="M47.496 76.7851C65.5297 76.7851 80.149 62.1659 80.149 44.1321C80.149 26.0983 65.5297 11.479 47.496 11.479C29.4622 11.479 14.8429 26.0983 14.8429 44.1321C14.8429 62.1659 29.4622 76.7851 47.496 76.7851Z" fill="#0ED2B3"/>
<path d="M11.5432 20.667V64.2068C11.5432 65.1296 10.7951 65.8777 9.87233 65.8777H5.22449C2.3391 65.8777 0 63.5386 0 60.6532V20.3996L0.760816 19.3611H10.2372C10.9584 19.3609 11.5432 19.9457 11.5432 20.667Z" fill="#E5EEF9"/>
<path d="M75.4877 19.3608L76.4081 20.3994V60.6531C76.4081 63.5385 74.069 65.8776 71.1837 65.8776H9.7959C6.91051 65.8776 4.57141 63.5385 4.57141 60.6531V19.3608H75.4877Z" fill="#F2FBFF"/>
<path d="M4.91886 15.828C4.91886 12.9426 7.25796 10.6035 10.1433 10.6035H5.22449C2.3391 10.6035 0 12.9426 0 15.828V20.3994H4.57143L4.91886 19.6109V15.828Z" fill="#0182FC"/>
<path d="M76.4081 20.3994V15.828C76.4081 12.9426 74.069 10.6035 71.1837 10.6035H9.7959C6.91051 10.6035 4.57141 12.9426 4.57141 15.828V20.3994H76.4081Z" fill="#26A6FE"/>
<path d="M6.85714 17.3947C7.75883 17.3947 8.48979 16.6637 8.48979 15.762C8.48979 14.8604 7.75883 14.1294 6.85714 14.1294C5.95545 14.1294 5.22449 14.8604 5.22449 15.762C5.22449 16.6637 5.95545 17.3947 6.85714 17.3947Z" fill="#62DBFB"/>
<path d="M12.5713 17.3947C13.4729 17.3947 14.2039 16.6637 14.2039 15.762C14.2039 14.8604 13.4729 14.1294 12.5713 14.1294C11.6696 14.1294 10.9386 14.8604 10.9386 15.762C10.9386 16.6637 11.6696 17.3947 12.5713 17.3947Z" fill="#62DBFB"/>
<path d="M18.2856 17.3947C19.1873 17.3947 19.9183 16.6637 19.9183 15.762C19.9183 14.8604 19.1873 14.1294 18.2856 14.1294C17.3839 14.1294 16.653 14.8604 16.653 15.762C16.653 16.6637 17.3839 17.3947 18.2856 17.3947Z" fill="#62DBFB"/>
<path d="M16.198 59.347H10.7755C9.33268 59.347 8.16321 58.1775 8.16321 56.7347V47.2653C8.16321 45.8225 9.33268 44.6531 10.7755 44.6531H16.198C17.6408 44.6531 18.8102 45.8225 18.8102 47.2653V56.7347C18.8102 58.1775 17.6406 59.347 16.198 59.347Z" fill="#FAC600"/>
<path d="M36.5396 59.347H15.8367C14.394 59.347 13.2245 58.1775 13.2245 56.7347V47.2653C13.2245 45.8225 14.394 44.6531 15.8367 44.6531H36.5396C37.9824 44.6531 39.1518 45.8225 39.1518 47.2653V56.7347C39.1518 58.1775 37.9824 59.347 36.5396 59.347Z" fill="#FED402"/>
<path d="M28.8418 50.5922H18.6922C17.7905 50.5922 17.0596 49.8613 17.0596 48.9596C17.0596 48.0578 17.7905 47.3269 18.6922 47.3269H28.8418C29.7435 47.3269 30.4744 48.0578 30.4744 48.9596C30.4744 49.8613 29.7433 50.5922 28.8418 50.5922Z" fill="#FEA713"/>
<path d="M33.7681 57.0187H18.6922C17.7905 57.0187 17.0596 56.2878 17.0596 55.3861C17.0596 54.4844 17.7905 53.7534 18.6922 53.7534H33.7681C34.6699 53.7534 35.4008 54.4844 35.4008 55.3861C35.4008 56.2878 34.6699 57.0187 33.7681 57.0187Z" fill="#FB8801"/>
<path d="M12.245 57.0187C11.3432 57.0187 10.6123 56.2878 10.6123 55.3861C10.6123 54.4844 11.3432 53.7534 12.245 53.7534C13.1467 53.7534 13.8776 54.4844 13.8776 55.3861C13.8776 56.2878 13.1467 57.0187 12.245 57.0187Z" fill="#FEE903"/>
<path d="M12.245 50.5922C11.3432 50.5922 10.6123 49.8613 10.6123 48.9596C10.6123 48.0578 11.3432 47.3269 12.245 47.3269C13.1467 47.3269 13.8776 48.0578 13.8776 48.9596C13.8776 49.8613 13.1467 50.5922 12.245 50.5922Z" fill="#FEF056"/>
<path d="M69.2245 46.2856H51.5919C50.1491 46.2856 48.9796 45.1161 48.9796 43.6734V26.0407C48.9796 24.5979 50.1491 23.4285 51.5919 23.4285H69.2245C70.6673 23.4285 71.8368 24.5979 71.8368 26.0407V43.6734C71.8368 45.1161 70.6673 46.2856 69.2245 46.2856Z" fill="#99E6FC"/>
<path d="M66.9388 29.9592H53.8775C52.9758 29.9592 52.2449 29.2282 52.2449 28.3265C52.2449 27.4248 52.9758 26.6938 53.8775 26.6938H66.9388C67.8405 26.6938 68.5714 27.4248 68.5714 28.3265C68.5714 29.2282 67.8405 29.9592 66.9388 29.9592Z" fill="#01D0FB"/>
<path d="M58.7755 36.4899H53.8775C52.9758 36.4899 52.2449 35.759 52.2449 34.8573C52.2449 33.9555 52.9758 33.2246 53.8775 33.2246H58.7755C59.6772 33.2246 60.4081 33.9555 60.4081 34.8573C60.4081 35.759 59.6772 36.4899 58.7755 36.4899Z" fill="#01D0FB"/>
<path d="M22.8571 28.3266H9.79586C8.89415 28.3266 8.16321 27.5956 8.16321 26.6939C8.16321 25.7922 8.89415 25.0613 9.79586 25.0613H22.8571C23.7588 25.0613 24.4897 25.7922 24.4897 26.6939C24.4897 27.5956 23.7588 28.3266 22.8571 28.3266Z" fill="#BEC6ED"/>
<path d="M31.0203 34.8571H9.79586C8.89415 34.8571 8.16321 34.1262 8.16321 33.2245C8.16321 32.3227 8.89415 31.5918 9.79586 31.5918H31.0203C31.9221 31.5918 32.653 32.3227 32.653 33.2245C32.653 34.1262 31.9221 34.8571 31.0203 34.8571Z" fill="#D5DAF3"/>
<path d="M37.551 41.3879H9.79586C8.89415 41.3879 8.16321 40.6569 8.16321 39.7552C8.16321 38.8535 8.89415 38.1226 9.79586 38.1226H37.551C38.4527 38.1226 39.1836 38.8535 39.1836 39.7552C39.1836 40.6569 38.4527 41.3879 37.551 41.3879Z" fill="#D5DAF3"/>
<path d="M83.5918 56.3597C83.5918 60.2893 82.4899 63.9616 80.5782 67.0844C80.2994 67.5401 79.9152 67.9241 79.4597 68.2029C76.3369 70.1146 72.6646 71.2165 68.735 71.2165C57.4114 71.2168 48.163 61.9687 48.1632 50.6451C48.1632 46.7171 49.2643 43.046 51.1745 39.9241C51.4548 39.466 51.8411 39.0797 52.2992 38.7994C55.4212 36.8891 59.0922 35.7881 63.0202 35.7881C74.3436 35.7879 83.5919 45.0363 83.5918 56.3597Z" fill="#4F66D0"/>
<path d="M80.7709 66.763C77.1975 72.8468 70.586 76.9308 63.0204 76.9308C51.6591 76.9308 42.449 67.7207 42.449 56.3594C42.449 48.7939 46.5331 42.1823 52.6168 38.6089C50.824 41.6611 49.7959 45.2167 49.7959 49.0125C49.7959 60.3738 59.006 69.5839 70.3673 69.5839C74.1631 69.5839 77.7187 68.5558 80.7709 66.763Z" fill="#314DC9"/>
<path d="M55.9121 41.7235C55.9121 43.1269 55.5186 44.4384 54.8358 45.5539C54.7363 45.7166 54.5991 45.8538 54.4363 45.9534C53.3211 46.6361 52.0096 47.0296 50.606 47.0296C46.5619 47.0296 43.2589 43.7267 43.259 39.6827C43.259 38.2797 43.6523 36.9687 44.3345 35.8538C44.4345 35.6902 44.5725 35.5522 44.7361 35.4521C45.851 34.7699 47.1622 34.3767 48.565 34.3767C52.6092 34.3764 55.9121 37.6794 55.9121 41.7235Z" fill="#FE7701"/>
<path d="M54.9046 45.4388C53.6284 47.6115 51.2671 49.0702 48.5652 49.0702C44.5076 49.0702 41.2183 45.7808 41.2183 41.7232C41.2183 39.0212 42.6769 36.6599 44.8496 35.3838C44.2093 36.4739 43.8421 37.7438 43.8421 39.0994C43.8421 43.157 47.1314 46.4463 51.189 46.4463C52.5446 46.4463 53.8145 46.0791 54.9046 45.4388Z" fill="#FD5426"/>
<path d="M63.0204 56.0816C65.7255 56.0816 67.9184 53.8888 67.9184 51.1837V49.551C67.9184 46.8459 65.7255 44.6531 63.0204 44.6531C60.3153 44.6531 58.1224 46.8459 58.1224 49.551V51.1837C58.1224 53.8888 60.3153 56.0816 63.0204 56.0816Z" fill="#FFE5C2"/>
<path d="M55.5721 68.0659H70.4687C70.9195 68.0659 71.285 67.7004 71.285 67.2496V63.168C71.285 60.4628 69.0922 58.27 66.3871 58.27H59.6537C56.9486 58.27 54.7557 60.4628 54.7557 63.168V67.2496C54.7557 67.7006 55.1213 68.0659 55.5721 68.0659Z" fill="#05E39C"/>
<path d="M46.9326 44.1722V39.2743C46.9326 38.3725 47.6636 37.6416 48.5653 37.6416C49.467 37.6416 50.1979 38.3725 50.1979 39.2743V44.1722C50.1979 45.0739 49.467 45.8049 48.5653 45.8049C47.6636 45.8049 46.9326 45.0739 46.9326 44.1722Z" fill="#F2FBFF"/>
</svg>
