<svg width="80" height="80" viewBox="0 0 80 80" fill="none" xmlns="http://www.w3.org/2000/svg">
<g clip-path="url(#clip0_1325_45153)">
<path d="M71.2879 54.0633H71.1692C70.8401 54.3005 70.6043 54.4705 70.2753 54.7076C66.3546 66.7247 56.0401 76.1501 43.1103 78.5933C42.8224 78.9416 42.6337 79.1698 42.3459 79.5181C40.4148 79.8353 38.4304 79.9994 36.4087 79.9994C21.697 79.9994 9.03838 71.2951 3.29494 58.7506C3.55307 58.354 3.77635 58.0145 3.7965 57.9834C-2.24475 44.1759 0.993378 28.6197 11.2132 18.3997C16.3892 13.2237 22.8448 9.86295 29.8621 8.56904C30.1512 8.22061 30.3387 7.99404 30.6278 7.64717C32.5257 7.34451 34.461 7.19092 36.4087 7.19092C39.6617 7.19092 42.8803 7.62061 45.9895 8.46592C43.8428 11.4673 42.5787 15.1406 42.5787 19.1028C42.5787 33.2395 59.3918 43.2733 60.1074 43.692C60.5965 43.9795 61.1996 43.9795 61.6885 43.692C62.0792 43.4639 67.2476 40.3812 71.8707 35.3378C73.2878 41.4298 73.1171 47.9537 71.2879 54.0633Z" fill="#19AFF9"/>
<path d="M71.288 54.0633H71.1693C70.8396 54.3008 70.6036 54.4711 70.2755 54.7071C66.3554 66.7252 56.0404 76.1496 43.1099 78.5932C42.8224 78.9416 42.6333 79.1697 42.3458 79.5182C41.3802 79.6775 40.4022 79.7963 39.4116 79.8775C38.546 79.9478 37.6711 79.9885 36.7883 79.9978V7.19409C39.9116 7.22534 43.0005 7.65347 45.9894 8.46581C43.8427 11.4672 42.5786 15.1405 42.5786 19.1027C42.5786 33.2394 59.3918 43.2732 60.1074 43.6919C60.5965 43.9794 61.1996 43.9794 61.6885 43.6919C62.0791 43.4638 67.2475 40.3811 71.8707 35.3377C73.2879 41.4297 73.1177 47.9543 71.288 54.0633Z" fill="#0097F4"/>
<path d="M25.9406 25.9398L40.0023 40.0015V49.3761L25.9406 63.4378L21.2534 58.7506H3.28875C-2.715 45.6486 -0.637499 29.1592 10.6664 17.8528C16.1598 12.3609 23.1 8.83764 30.6278 7.64404V21.2526L25.9406 25.9398Z" fill="#FED941"/>
<path d="M40.0024 40.0015V49.376L36.7885 52.5898V36.7876L40.0024 40.0015Z" fill="#FCBE29"/>
<path d="M71.2927 54.0634C67.4184 67.0423 56.305 77.2429 42.3459 79.5214V63.4378L51.7205 54.0632H71.2927V54.0634Z" fill="#FCBE29"/>
<path d="M60.8984 0.000976562C50.3658 0.000976562 41.7969 8.56988 41.7969 19.1025C41.7969 33.6832 58.9806 43.9368 59.7122 44.3663C60.4447 44.7961 61.3523 44.7961 62.0848 44.3663C62.8162 43.9369 80 33.6832 80 19.1025C80 8.57004 71.4311 0.000976562 60.8984 0.000976562Z" fill="#FF4343"/>
<path d="M80 19.1028C80 33.6832 62.8165 43.9373 62.0854 44.367C61.7198 44.5826 61.3089 44.6889 60.8979 44.6889V0.000732422C71.4317 0.000732422 80 8.57042 80 19.1028Z" fill="#EA2828"/>
<path d="M60.8985 28.2835C66.0759 28.2835 70.273 24.0864 70.273 18.909C70.273 13.7315 66.0759 9.53442 60.8985 9.53442C55.721 9.53442 51.5239 13.7315 51.5239 18.909C51.5239 24.0864 55.721 28.2835 60.8985 28.2835Z" fill="#E0F4FE"/>
<path d="M70.2725 18.909C70.2725 24.0774 66.0681 28.2835 60.8979 28.2835V9.53442C66.0679 9.53442 70.2725 13.7405 70.2725 18.909Z" fill="#BCDCFE"/>
</g>
<defs>
<clipPath id="clip0_1325_45153">
<rect width="80" height="80" fill="white"/>
</clipPath>
</defs>
</svg>
