<svg width="80" height="80" viewBox="0 0 80 80" fill="none" xmlns="http://www.w3.org/2000/svg">
<g clip-path="url(#clip0_1325_45135)">
<path d="M79.0573 16.5625V63.4375C79.0573 72.0669 72.0616 79.0625 63.4323 79.0625H16.5679C7.9385 79.0625 0.942871 72.0669 0.942871 63.4375V16.5625C0.942871 7.93313 7.9385 0.9375 16.5679 0.9375H63.4319C72.0616 0.9375 79.0573 7.93313 79.0573 16.5625Z" fill="#F08D33"/>
<path d="M35.2266 13.2615V66.7302C35.2266 68.988 33.3906 70.824 31.1328 70.824C28.8828 70.824 27.0469 68.988 27.0469 66.7302V64.9724C25.0859 64.6755 23.5781 62.9802 23.5781 60.9333V59.8708C23.5781 57.824 25.0859 56.1287 27.0469 55.8318V44.5662C25.0859 44.2693 23.5781 42.574 23.5781 40.5271V39.4646C23.5781 37.4177 25.0859 35.7224 27.0469 35.4255V24.1599C25.0859 23.863 23.5781 22.1677 23.5781 20.1208V19.0583C23.5781 17.0193 25.0859 15.3162 27.0469 15.0193V13.2615C27.0469 11.0037 28.8828 9.17554 31.1328 9.17554C33.3906 9.17554 35.2266 11.0037 35.2266 13.2615Z" fill="white"/>
<path d="M68.3437 12.9255H41.7422C40.25 12.9255 39.0312 14.1443 39.0312 15.6365V21.4255C39.0312 22.9177 40.25 24.1365 41.7422 24.1365H68.3437C69.8359 24.1365 71.0547 22.9177 71.0547 21.4255V15.6365C71.0547 14.1443 69.8359 12.9255 68.3437 12.9255ZM61.5078 19.3162H48.5781C48.1484 19.3162 47.7969 18.9646 47.7969 18.5349C47.7969 18.0974 48.1484 17.7537 48.5781 17.7537H61.5078C61.9375 17.7537 62.2891 18.0974 62.2891 18.5349C62.2891 18.9646 61.9375 19.3162 61.5078 19.3162Z" fill="white"/>
<path d="M60.9688 33.8552H41.7422C40.25 33.8552 39.0312 35.074 39.0312 36.5662V42.3552C39.0312 43.8474 40.25 45.0662 41.7422 45.0662H60.9688C62.4688 45.0662 63.6797 43.8474 63.6797 42.3552V36.5662C63.6797 35.074 62.4688 33.8552 60.9688 33.8552ZM62.1172 42.3552C62.1172 42.988 61.6016 43.5037 60.9688 43.5037H41.7422C41.1094 43.5037 40.5937 42.988 40.5937 42.3552V36.5662C40.5937 35.9334 41.1094 35.4177 41.7422 35.4177H60.9688C61.6016 35.4177 62.1172 35.9334 62.1172 36.5662V42.3552Z" fill="white"/>
<path d="M54.6875 54.7771H41.7422C40.25 54.7771 39.0312 55.9959 39.0312 57.488V63.2771C39.0312 64.7771 40.25 65.988 41.7422 65.988H54.6875C56.1797 65.988 57.3984 64.7771 57.3984 63.2771V57.488C57.3984 55.9959 56.1797 54.7771 54.6875 54.7771ZM52.6406 61.1677H43.7891C43.3516 61.1677 43.0078 60.8162 43.0078 60.3865C43.0078 59.9568 43.3516 59.6052 43.7891 59.6052H52.6406C53.0703 59.6052 53.4219 59.9568 53.4219 60.3865C53.4219 60.8162 53.0703 61.1677 52.6406 61.1677Z" fill="white"/>
<path d="M21.3516 60.363C21.3516 63.7849 18.5703 66.5662 15.1484 66.5662C11.7266 66.5662 8.94531 63.7849 8.94531 60.363C8.94531 56.949 11.7266 54.1677 15.1484 54.1677C18.5703 54.1677 21.3516 56.949 21.3516 60.363Z" fill="white"/>
<path d="M15.1484 33.7927C11.7266 33.7927 8.94531 36.574 8.94531 39.9958C8.94531 43.4177 11.7266 46.199 15.1484 46.199C18.5703 46.199 21.3516 43.4177 21.3516 39.9958C21.3516 36.574 18.5703 33.7927 15.1484 33.7927ZM15.1484 44.6365C12.5859 44.6365 10.5078 42.5583 10.5078 39.9958C10.5078 37.4333 12.5859 35.3552 15.1484 35.3552C17.7109 35.3552 19.7891 37.4333 19.7891 39.9958C19.7891 42.5583 17.7109 44.6365 15.1484 44.6365Z" fill="white"/>
<path d="M21.3516 19.6287C21.3516 23.0427 18.5703 25.824 15.1484 25.824C11.7266 25.824 8.94531 23.0427 8.94531 19.6287C8.94531 16.2068 11.7266 13.4255 15.1484 13.4255C18.5703 13.4255 21.3516 16.2068 21.3516 19.6287Z" fill="white"/>
<path d="M57.7897 38.678H44.9247C44.4931 38.678 44.1434 39.0274 44.1434 39.4592C44.1434 39.8911 44.4931 40.2405 44.9247 40.2405H57.7897C58.2212 40.2405 58.5709 39.8911 58.5709 39.4592C58.5709 39.0274 58.2209 38.678 57.7897 38.678Z" fill="white"/>
</g>
<defs>
<clipPath id="clip0_1325_45135">
<rect width="80" height="80" fill="white"/>
</clipPath>
</defs>
</svg>
