<svg width="312" height="285" viewBox="0 0 312 285" fill="none" xmlns="http://www.w3.org/2000/svg">
<g clip-path="url(#clip0_1325_44499)">
<path fill-rule="evenodd" clip-rule="evenodd" d="M20.6213 44H292.787C303.564 44 312.391 52.0629 312.391 61.9071V209.731C312.391 219.591 303.564 227.654 292.787 227.654H20.6213C9.8268 227.654 1 219.591 1 209.731V61.9071C1 52.0635 9.8268 44 20.6213 44Z" fill="#7398D3"/>
<path fill-rule="evenodd" clip-rule="evenodd" d="M28.704 63.7368H96.3776V116.082H28.704V63.7368Z" fill="#F4DD45"/>
<path d="M28.704 85.9185H96.3776V93.9168H28.704V85.9185Z" fill="#D1BA27"/>
<path fill-rule="evenodd" clip-rule="evenodd" d="M51.817 63.7368H73.2816V116.082H51.817V63.7368Z" fill="#F99608"/>
<path fill-rule="evenodd" clip-rule="evenodd" d="M148.046 228.562V227.655V191.484C148.046 180.911 157.511 172.25 169.103 172.25C180.677 172.25 190.142 180.911 190.142 191.484V227.655H268.468V250.986C268.468 255.325 267.245 259.049 264.604 262.66C260.332 268.521 255.316 273.249 247.659 278.236L177.345 286.639L168.518 278.236C161.676 273.411 149.712 269.849 148.755 250.404L148.117 230.23C148.064 229.679 148.046 229.128 148.046 228.562Z" fill="#FFC7AB"/>
<path fill-rule="evenodd" clip-rule="evenodd" d="M168.696 278.312H247.696V292.927H168.696V278.312Z" fill="#6BA7FF"/>
<path d="M190.142 249.917C187.724 249.917 185.764 248.126 185.764 245.918V227.655C185.764 225.446 187.725 223.656 190.142 223.656C192.559 223.656 194.52 225.446 194.52 227.655V245.918C194.52 248.126 192.56 249.917 190.142 249.917Z" fill="#F2A183"/>
<path d="M212.812 166.809C210.394 166.809 208.434 168.6 208.434 170.808V192.666C208.434 194.874 210.395 196.664 212.812 196.664C215.229 196.664 217.19 194.874 217.19 192.666V170.808C217.19 168.6 215.23 166.809 212.812 166.809Z" fill="#F1F4F6"/>
<path d="M234.1 166.809C231.682 166.809 229.722 168.6 229.722 170.808V192.666C229.722 194.874 231.683 196.664 234.1 196.664C236.517 196.664 238.478 194.874 238.478 192.666V170.808C238.478 168.6 236.517 166.809 234.1 166.809Z" fill="#F1F4F6"/>
<path d="M255.405 166.809C252.987 166.809 251.028 168.6 251.028 170.808V192.666C251.028 194.874 252.988 196.664 255.405 196.664C257.823 196.664 259.783 194.874 259.783 192.666V170.808C259.783 168.6 257.823 166.809 255.405 166.809Z" fill="#F1F4F6"/>
<path d="M276.711 166.809C274.293 166.809 272.333 168.6 272.333 170.808V192.666C272.333 194.874 274.293 196.664 276.711 196.664C279.128 196.664 281.088 194.874 281.088 192.666V170.808C281.088 168.6 279.129 166.809 276.711 166.809Z" fill="#F1F4F6"/>
<path d="M120.714 189.04H43.0962C40.6782 189.04 38.7184 190.83 38.7184 193.038C38.7184 195.247 40.6788 197.037 43.0962 197.037H120.714C123.132 197.037 125.091 195.247 125.091 193.038C125.091 190.83 123.132 189.04 120.714 189.04Z" fill="#F1F4F6"/>
<path d="M25.1769 189.04H24.9819C22.5639 189.04 20.6042 190.83 20.6042 193.038C20.6042 195.247 22.5645 197.037 24.9819 197.037H25.1769C27.5949 197.037 29.5547 195.247 29.5547 193.038C29.5547 190.83 27.5943 189.04 25.1769 189.04Z" fill="#F1F4F6"/>
<path d="M120.714 166.453H43.0962C40.6782 166.453 38.7184 168.243 38.7184 170.452C38.7184 172.66 40.6788 174.45 43.0962 174.45H120.714C123.132 174.45 125.091 172.66 125.091 170.452C125.091 168.243 123.132 166.453 120.714 166.453Z" fill="#F1F4F6"/>
<path d="M25.1769 166.453H24.9819C22.5639 166.453 20.6042 168.243 20.6042 170.452C20.6042 172.66 22.5645 174.45 24.9819 174.45H25.1769C27.5949 174.45 29.5547 172.66 29.5547 170.452C29.5547 168.243 27.5943 166.453 25.1769 166.453Z" fill="#F1F4F6"/>
<path fill-rule="evenodd" clip-rule="evenodd" d="M274.194 44H292.787C303.564 44 312.391 52.0629 312.391 61.9071V209.731C312.391 219.591 303.564 227.654 292.787 227.654H274.194C284.971 227.654 293.797 219.591 293.797 209.731V61.9071C293.797 52.0635 284.971 44 274.194 44Z" fill="#4278C3"/>
<path d="M1 139.819V131.82H312.391V139.819H1Z" fill="#4278C3"/>
<path d="M293.797 131.82H312.391V139.819H293.797V131.82Z" fill="#245BA8"/>
</g>
<defs>
<clipPath id="clip0_1325_44499">
<rect width="312" height="285" fill="white"/>
</clipPath>
</defs>
</svg>
