<svg width="65" height="64" viewBox="0 0 65 64" fill="none" xmlns="http://www.w3.org/2000/svg">
<path d="M56.1767 57.4255H40.6529C40.1009 57.4255 39.6533 56.9779 39.6533 56.4259V50.3384C39.6533 47.4657 40.4346 44.6452 41.9126 42.1815C43.2042 40.0287 43.8871 37.5637 43.8871 35.0532V32.1114C43.8871 29.2257 46.2347 26.878 49.1203 26.878C50.3401 26.878 51.4637 27.2975 52.3546 27.9998V13.7654C52.3546 11.2689 54.3857 9.23779 56.8822 9.23779C59.3788 9.23779 61.4099 11.2689 61.4099 13.7654V39.2872C61.4099 42.1599 60.6287 44.9805 59.1507 47.444C57.8591 49.5968 57.1762 52.0617 57.1762 54.5723V56.4262C57.1762 56.9779 56.7287 57.4255 56.1767 57.4255ZM41.6526 55.4264H55.1771V54.5722C55.1771 51.6994 55.9583 48.8789 57.4363 46.4153C58.7282 44.2625 59.4108 41.7977 59.4108 39.287V13.7654C59.4108 12.3713 58.2766 11.2369 56.8822 11.2369C55.4881 11.2369 54.3537 12.3712 54.3537 13.7654V32.1117C54.3537 32.6637 53.9061 33.1113 53.3541 33.1113C52.8021 33.1113 52.3544 32.6637 52.3544 32.1117C52.3544 30.3284 50.9036 28.8774 49.1202 28.8774C47.3369 28.8774 45.8861 30.3283 45.8861 32.1117V35.0534C45.8861 37.926 45.1048 40.7467 43.6268 43.2103C42.3351 45.363 41.6523 47.8279 41.6523 50.3385V55.4264H41.6526Z" fill="url(#paint0_linear_1325_44611)"/>
<path d="M58.9992 63.9223H37.8306C37.2786 63.9223 36.8309 63.4746 36.8309 62.9226V56.4259C36.8309 55.8739 37.2786 55.4263 37.8306 55.4263H58.9992C59.5512 55.4263 59.9988 55.8739 59.9988 56.4259V62.9226C59.9988 63.4746 59.5512 63.9223 58.9992 63.9223ZM38.8302 61.9231H57.9997V57.4255H38.8302V61.9231Z" fill="url(#paint1_linear_1325_44611)"/>
<path d="M53.3751 41.6818C52.8231 41.6818 52.3751 41.2342 52.3751 40.6822V32.3107C52.3751 31.7587 52.8231 31.311 53.3751 31.311C53.9271 31.311 54.3751 31.7587 54.3751 32.3107V40.6822C54.3751 41.2343 53.9271 41.6818 53.3751 41.6818Z" fill="url(#paint2_linear_1325_44611)"/>
<path d="M24.347 57.4255H8.82328C8.27128 57.4255 7.82365 56.9779 7.82365 56.4259V54.572C7.82365 52.0614 7.1409 49.5965 5.84928 47.4438C4.37128 44.9805 3.59003 42.1599 3.59003 39.2869V13.7654C3.59003 11.2689 5.62115 9.23779 8.11765 9.23779C10.6143 9.23779 12.6454 11.2689 12.6454 13.7654V27.9999C13.5362 27.2977 14.6598 26.8782 15.8795 26.8782C18.7653 26.8782 21.1129 29.2258 21.1129 32.1115V35.0533C21.1129 37.5639 21.7958 40.0288 23.0874 42.1817C24.5653 44.6449 25.3465 47.4655 25.3465 50.3385V56.426C25.3465 56.9779 24.899 57.4255 24.347 57.4255ZM9.8229 55.4264H23.3474V50.3385C23.3474 47.8279 22.6646 45.363 21.373 43.2103C19.895 40.7469 19.1138 37.9263 19.1138 35.0534V32.1117C19.1138 30.3284 17.6629 28.8774 15.8795 28.8774C14.0962 28.8774 12.6454 30.3283 12.6454 32.1117C12.6454 32.6637 12.1978 33.1113 11.6458 33.1113C11.0938 33.1113 10.6462 32.6637 10.6462 32.1117V13.7654C10.6462 12.3713 9.5119 11.2369 8.11753 11.2369C6.7234 11.2369 5.58903 12.3712 5.58903 13.7654V39.2872C5.58903 41.7978 6.27178 44.2627 7.5634 46.4154C9.0414 48.8787 9.82265 51.6993 9.82265 54.5723V55.4264H9.8229Z" fill="url(#paint3_linear_1325_44611)"/>
<path d="M27.1695 63.9223H6.00091C5.44891 63.9223 5.00128 63.4746 5.00128 62.9226V56.4259C5.00128 55.8739 5.44891 55.4263 6.00091 55.4263H27.1695C27.7215 55.4263 28.1692 55.8739 28.1692 56.4259V62.9226C28.1692 63.4746 27.7215 63.9223 27.1695 63.9223ZM7.00053 61.9231H26.17V57.4255H7.00053V61.9231Z" fill="url(#paint4_linear_1325_44611)"/>
<path d="M11.625 41.6818C11.073 41.6818 10.625 41.2342 10.625 40.6822V32.3107C10.625 31.7587 11.073 31.311 11.625 31.311C12.177 31.311 12.625 31.7587 12.625 32.3107V40.6822C12.625 41.2343 12.177 41.6818 11.625 41.6818Z" fill="url(#paint5_linear_1325_44611)"/>
<path d="M32.5 28.1219C32.2441 28.1219 31.9884 28.0243 31.7931 27.8292L19.8286 15.8648C18.2845 14.3206 17.2055 12.4269 16.7084 10.3886C15.9351 7.21869 16.6269 4.35519 18.6561 2.32582C21.6536 -0.671432 26.5311 -0.671432 29.5284 2.32582L32.5 5.29769L35.4715 2.32594C38.469 -0.671307 43.3465 -0.671307 46.3438 2.32594C46.3439 2.32594 46.3439 2.32594 46.3439 2.32607C48.373 4.35532 49.0648 7.21882 48.2916 10.3887C47.7943 12.4272 46.7153 14.3207 45.1713 15.8649L33.2069 27.8293C33.0116 28.0243 32.7558 28.1219 32.5 28.1219ZM24.0924 2.07607C22.6355 2.07607 21.179 2.63044 20.0698 3.73957C18.5531 5.25619 18.0491 7.44932 18.6506 9.91494C19.061 11.5974 19.9571 13.1659 21.2423 14.4511L32.5 25.7088L43.7575 14.4512C45.0428 13.1661 45.939 11.5976 46.3493 9.91494C46.9506 7.44944 46.4466 5.25632 44.93 3.73957C42.7123 1.52182 39.1029 1.52169 36.8851 3.73969L33.2068 7.41807C33.0193 7.60557 32.765 7.71094 32.4999 7.71094C32.2348 7.71094 31.9806 7.60569 31.793 7.41807L28.1146 3.73969C27.006 2.63069 25.5489 2.07607 24.0924 2.07607Z" fill="url(#paint6_linear_1325_44611)"/>
<path d="M32.5 18.1916C31.948 18.1916 31.5 17.7439 31.5 17.1919V11.1944C31.5 10.6424 31.948 10.1948 32.5 10.1948C33.052 10.1948 33.5 10.6424 33.5 11.1944V17.1919C33.5 17.7441 33.052 18.1916 32.5 18.1916Z" fill="url(#paint7_linear_1325_44611)"/>
<path d="M35.4914 15.125H29.4939C28.9419 15.125 28.4943 14.677 28.4943 14.125C28.4943 13.573 28.9419 13.125 29.4939 13.125H35.4914C36.0434 13.125 36.491 13.573 36.491 14.125C36.491 14.677 36.0434 15.125 35.4914 15.125Z" fill="url(#paint8_linear_1325_44611)"/>
<defs>
<linearGradient id="paint0_linear_1325_44611" x1="13.3536" y1="75.7784" x2="77.4972" y2="11.6348" gradientUnits="userSpaceOnUse">
<stop stop-color="#4DCAEF"/>
<stop offset="1" stop-color="#107CBC"/>
</linearGradient>
<linearGradient id="paint1_linear_1325_44611" x1="22.8322" y1="85.257" x2="86.9758" y2="21.1134" gradientUnits="userSpaceOnUse">
<stop stop-color="#4DCAEF"/>
<stop offset="1" stop-color="#107CBC"/>
</linearGradient>
<linearGradient id="paint2_linear_1325_44611" x1="13.7298" y1="76.1418" x2="77.8759" y2="11.9957" gradientUnits="userSpaceOnUse">
<stop stop-color="#4DCAEF"/>
<stop offset="1" stop-color="#107CBC"/>
</linearGradient>
<linearGradient id="paint3_linear_1325_44611" x1="-6.7951" y1="55.6299" x2="57.3485" y2="-8.51383" gradientUnits="userSpaceOnUse">
<stop stop-color="#4DCAEF"/>
<stop offset="1" stop-color="#107CBC"/>
</linearGradient>
<linearGradient id="paint4_linear_1325_44611" x1="6.91728" y1="69.3423" x2="71.0609" y2="5.19865" gradientUnits="userSpaceOnUse">
<stop stop-color="#4DCAEF"/>
<stop offset="1" stop-color="#107CBC"/>
</linearGradient>
<linearGradient id="paint5_linear_1325_44611" x1="-7.15325" y1="55.2748" x2="56.9929" y2="-8.87122" gradientUnits="userSpaceOnUse">
<stop stop-color="#4DCAEF"/>
<stop offset="1" stop-color="#107CBC"/>
</linearGradient>
<linearGradient id="paint6_linear_1325_44611" x1="-10.7079" y1="51.7169" x2="53.4358" y2="-12.4267" gradientUnits="userSpaceOnUse">
<stop stop-color="#4DCAEF"/>
<stop offset="1" stop-color="#107CBC"/>
</linearGradient>
<linearGradient id="paint7_linear_1325_44611" x1="-7.86413" y1="54.5575" x2="56.2826" y2="-9.5893" gradientUnits="userSpaceOnUse">
<stop stop-color="#4DCAEF"/>
<stop offset="1" stop-color="#107CBC"/>
</linearGradient>
<linearGradient id="paint8_linear_1325_44611" x1="-7.87137" y1="54.4891" x2="56.2754" y2="-9.65764" gradientUnits="userSpaceOnUse">
<stop stop-color="#4DCAEF"/>
<stop offset="1" stop-color="#107CBC"/>
</linearGradient>
</defs>
</svg>
