<svg width="65" height="64" viewBox="0 0 65 64" fill="none" xmlns="http://www.w3.org/2000/svg">
<g clip-path="url(#clip0_1325_44587)">
<path d="M63.4333 19.2H62.3667V7.46667C62.3667 6.8776 61.8891 6.4 61.3 6.4H43.1667V1.06667C43.1667 0.477604 42.6891 0 42.1 0H22.9C22.3109 0 21.8333 0.477604 21.8333 1.06667V6.4H3.7C3.11094 6.4 2.63333 6.8776 2.63333 7.46667V19.2H1.56667C0.977604 19.2 0.5 19.6776 0.5 20.2667V24.5333C0.5 25.1224 0.977604 25.6 1.56667 25.6H2.63333V62.9333C2.63333 63.5224 3.11094 64 3.7 64H61.3C61.8891 64 62.3667 63.5224 62.3667 62.9333V25.6H63.4333C64.0224 25.6 64.5 25.1224 64.5 24.5333V20.2667C64.5 19.6776 64.0224 19.2 63.4333 19.2ZM43.1667 8.53333H60.2333V19.2H43.1667V8.53333ZM23.9667 2.13333H41.0333V19.2H23.9667V2.13333ZM4.76667 8.53333H21.8333V19.2H4.76667V8.53333ZM52.7667 61.8667H38.9V53.3333H52.7667V61.8667ZM52.7667 51.2H38.9V40.5333H52.7667V51.2ZM52.7667 38.4H38.9V33.0667H52.7667V38.4ZM60.2333 61.8667H54.9V32C54.9 31.4109 54.4224 30.9333 53.8333 30.9333H37.8333C37.2443 30.9333 36.7667 31.4109 36.7667 32V61.8667H4.76667V25.6H60.2333V61.8667ZM62.3667 23.4667H2.63333V21.3333H62.3667V23.4667Z" fill="url(#paint0_linear_1325_44587)"/>
<path d="M11.1666 54.4H30.3666C30.9557 54.4 31.4333 53.9224 31.4333 53.3334V48C31.4333 47.411 30.9557 46.9333 30.3666 46.9333H29.3V32C29.3 31.411 28.8224 30.9333 28.2333 30.9333H13.3C12.7109 30.9333 12.2333 31.411 12.2333 32V46.9333H11.1666C10.5776 46.9333 10.1 47.411 10.1 48V53.3334C10.1 53.9224 10.5776 54.4 11.1666 54.4ZM14.3666 33.0667H27.1666V46.9333H14.3666V33.0667ZM12.2333 49.0667H29.3V52.2667H12.2333V49.0667Z" fill="url(#paint1_linear_1325_44587)"/>
<path d="M49.5667 46.9334C50.1557 46.9334 50.6333 46.4558 50.6333 45.8667V44.8001C50.6333 44.211 50.1557 43.7334 49.5667 43.7334C48.9776 43.7334 48.5 44.211 48.5 44.8001V45.8667C48.5 46.4558 48.9776 46.9334 49.5667 46.9334Z" fill="url(#paint2_linear_1325_44587)"/>
<path d="M37.8333 7.4666H35.7V5.33327C35.7 4.74421 35.2224 4.2666 34.6333 4.2666H30.3666C29.7776 4.2666 29.3 4.74421 29.3 5.33327V7.4666H27.1666C26.5776 7.4666 26.1 7.94421 26.1 8.53327V12.7999C26.1 13.389 26.5776 13.8666 27.1666 13.8666H29.3V15.9999C29.3 16.589 29.7776 17.0666 30.3666 17.0666H34.6333C35.2224 17.0666 35.7 16.589 35.7 15.9999V13.8666H37.8333C38.4224 13.8666 38.9 13.389 38.9 12.7999V8.53327C38.9 7.94421 38.4224 7.4666 37.8333 7.4666ZM36.7666 11.7333H34.6333C34.0442 11.7333 33.5666 12.2109 33.5666 12.7999V14.9333H31.4333V12.7999C31.4333 12.2109 30.9557 11.7333 30.3666 11.7333H28.2333V9.59994H30.3666C30.9557 9.59994 31.4333 9.12233 31.4333 8.53327V6.39994H33.5666V8.53327C33.5666 9.12233 34.0442 9.59994 34.6333 9.59994H36.7666V11.7333Z" fill="url(#paint3_linear_1325_44587)"/>
<path d="M18.3208 40.2209L21.5208 37.0209C21.925 36.6021 21.9193 35.937 21.5078 35.5255C21.0963 35.1141 20.4312 35.1084 20.0125 35.5125L16.8125 38.7125C16.5354 38.9802 16.4239 39.3771 16.5219 39.75C16.6193 40.1229 16.9104 40.4141 17.2833 40.5115C17.6562 40.6094 18.0531 40.4979 18.3208 40.2209Z" fill="url(#paint4_linear_1325_44587)"/>
<path d="M23.2125 37.6458L17.8791 42.9792C17.6021 43.2469 17.4906 43.6437 17.5885 44.0167C17.6859 44.3896 17.9771 44.6807 18.35 44.7781C18.7229 44.876 19.1198 44.7646 19.3875 44.4875L24.7208 39.1542C25.125 38.7354 25.1192 38.0703 24.7078 37.6588C24.2963 37.2474 23.6312 37.2417 23.2125 37.6458Z" fill="url(#paint5_linear_1325_44587)"/>
</g>
<defs>
<linearGradient id="paint0_linear_1325_44587" x1="-2.7" y1="32" x2="66.2387" y2="32" gradientUnits="userSpaceOnUse">
<stop stop-color="#4761AC"/>
<stop offset="1" stop-color="#54C2EF"/>
</linearGradient>
<linearGradient id="paint1_linear_1325_44587" x1="-2.70002" y1="42.6667" x2="66.2386" y2="42.6667" gradientUnits="userSpaceOnUse">
<stop stop-color="#4761AC"/>
<stop offset="1" stop-color="#54C2EF"/>
</linearGradient>
<linearGradient id="paint2_linear_1325_44587" x1="-2.70001" y1="45.3334" x2="66.2387" y2="45.3334" gradientUnits="userSpaceOnUse">
<stop stop-color="#4761AC"/>
<stop offset="1" stop-color="#54C2EF"/>
</linearGradient>
<linearGradient id="paint3_linear_1325_44587" x1="-2.70002" y1="10.6666" x2="66.2386" y2="10.6666" gradientUnits="userSpaceOnUse">
<stop stop-color="#4761AC"/>
<stop offset="1" stop-color="#54C2EF"/>
</linearGradient>
<linearGradient id="paint4_linear_1325_44587" x1="-2.70001" y1="37.8667" x2="66.2387" y2="37.8667" gradientUnits="userSpaceOnUse">
<stop stop-color="#4761AC"/>
<stop offset="1" stop-color="#54C2EF"/>
</linearGradient>
<linearGradient id="paint5_linear_1325_44587" x1="-2.70003" y1="41.0667" x2="66.2386" y2="41.0667" gradientUnits="userSpaceOnUse">
<stop stop-color="#4761AC"/>
<stop offset="1" stop-color="#54C2EF"/>
</linearGradient>
<clipPath id="clip0_1325_44587">
<rect width="64" height="64" fill="white" transform="translate(0.5)"/>
</clipPath>
</defs>
</svg>
