<svg width="50" height="59" viewBox="0 0 50 59" fill="none" xmlns="http://www.w3.org/2000/svg">
<path d="M32.1264 12.5H8.33368V50H41.667V18.75C37.4056 18.75 33.7378 16.174 32.1264 12.5Z" fill="#F0F0F0"/>
<path d="M31.25 8.33337H10.4167H8.33333C7.18229 8.33337 6.25 9.26567 6.25 10.4167C6.25 11.5667 7.18229 12.5 8.33333 12.5H32.126C31.5656 11.223 31.25 9.81462 31.25 8.33337Z" fill="#505050"/>
<path d="M32.1257 4.16675H12.4997C11.3486 4.16675 10.4163 5.09904 10.4163 6.25008V8.33341H31.2497C31.2497 6.85216 31.5653 5.44383 32.1257 4.16675Z" fill="#FAB400"/>
<path d="M45.833 23.9583V26.0416H47.9163V45.8333H41.6663V47.9166H49.9997V23.9583H45.833Z" fill="#505050"/>
<path d="M8.33368 12.5H12.5003V50H8.33368V12.5Z" fill="#D2D2D2"/>
<path d="M8.33299 50L5.38715 52.9458C4.60486 53.7281 4.16632 54.7875 4.16632 55.8927V58.3333H45.833V55.8927C45.833 54.7875 45.3944 53.7281 44.6122 52.9469L41.6663 50H8.33299Z" fill="#505050"/>
<path d="M9.55382 52.9458L12.4997 50H8.33299L5.38715 52.9458C4.60486 53.7281 4.16632 54.7875 4.16632 55.8927V58.3333H8.33299V55.8927C8.33299 54.7875 8.77153 53.7281 9.55382 52.9458Z" fill="#3C3C3C"/>
<path d="M10.4167 10.4167C10.4167 9.26567 11.349 8.33337 12.5 8.33337H8.33333C7.18229 8.33337 6.25 9.26567 6.25 10.4167C6.25 11.5677 7.18229 12.5 8.33333 12.5H12.5C11.349 12.5 10.4167 11.5677 10.4167 10.4167Z" fill="#3C3C3C"/>
<path d="M16.6663 4.16675H12.4997C11.3486 4.16675 10.4163 5.09904 10.4163 6.25008V8.33341H14.583V6.25008C14.583 5.09904 15.5153 4.16675 16.6663 4.16675Z" fill="#DC9600"/>
<path d="M24.9997 56.2499C23.8486 56.2499 22.9163 55.3176 22.9163 54.1666C22.9163 53.0155 23.8486 52.0833 24.9997 52.0833C26.1507 52.0833 27.083 53.0155 27.083 54.1666C27.083 55.3176 26.1507 56.2499 24.9997 56.2499Z" fill="#F0F0F0"/>
<path d="M14.5837 16.6667H35.417V35.4167H14.5837V16.6667Z" fill="#64C8F0"/>
<path d="M25 29.1666C21.5479 29.1666 18.75 26.3687 18.75 22.9166C18.75 19.4645 21.5479 16.6666 25 16.6666C28.4521 16.6666 31.25 19.4645 31.25 22.9166C31.25 26.3687 28.4521 29.1666 25 29.1666Z" fill="#F0C8A0"/>
<path d="M18.75 22.9166C18.75 19.4645 21.5479 16.6666 25 16.6666C28.4521 16.6666 31.25 19.4645 31.25 22.9166H18.75Z" fill="#FAB400"/>
<path d="M22.9167 22.9166C22.9167 20.1968 24.6573 17.8885 27.0833 17.0302C26.4312 16.7989 25.7312 16.6666 25 16.6666C21.5479 16.6666 18.75 19.4645 18.75 22.9166C18.75 26.3687 21.5479 29.1666 25 29.1666C25.7312 29.1666 26.4312 29.0343 27.0833 28.8031C24.6573 27.9447 22.9167 25.6364 22.9167 22.9166Z" fill="#D2AA82"/>
<path d="M27.0833 17.0302C26.4312 16.7989 25.7312 16.6666 25 16.6666C21.5479 16.6666 18.75 19.4645 18.75 22.9166H22.9167C22.9167 20.1968 24.6573 17.8885 27.0833 17.0302Z" fill="#DC9600"/>
<path d="M31.25 35.4166H18.75C18.75 31.9645 21.5479 29.1666 25 29.1666C28.4521 29.1666 31.25 31.9645 31.25 35.4166Z" fill="#FA6450"/>
<path d="M27.0833 29.5302C26.4312 29.2989 25.7312 29.1666 25 29.1666C21.5479 29.1666 18.75 31.9645 18.75 35.4166H22.9167C22.9167 32.6968 24.6573 30.3885 27.0833 29.5302Z" fill="#DC4632"/>
<path d="M43.7497 29.1666H41.6663V20.8333H43.7497C44.9007 20.8333 45.833 21.7655 45.833 22.9166V27.0833C45.833 28.2343 44.9007 29.1666 43.7497 29.1666Z" fill="#FAB400"/>
<path d="M4.16667 23.9584V26.0417H2.08333V45.8334H8.33333V47.9167H0V23.9584H4.16667Z" fill="#505050"/>
<path d="M6.24965 29.1666H8.33299V20.8333H6.24965C5.09861 20.8333 4.16632 21.7655 4.16632 22.9166V27.0833C4.16632 28.2343 5.09861 29.1666 6.24965 29.1666Z" fill="#FAB400"/>
<path d="M41.667 16.6667C46.2694 16.6667 50.0003 12.9357 50.0003 8.33333C50.0003 3.73096 46.2694 0 41.667 0C37.0646 0 33.3337 3.73096 33.3337 8.33333C33.3337 12.9357 37.0646 16.6667 41.667 16.6667Z" fill="#FA6450"/>
<path d="M35.417 8.33333C35.417 4.08437 38.5993 0.585416 42.7087 0.0718748C42.367 0.0291664 42.0201 0 41.667 0C37.0649 0 33.3337 3.73125 33.3337 8.33333C33.3337 12.9354 37.0649 16.6667 41.667 16.6667C42.0201 16.6667 42.367 16.6375 42.7087 16.5948C38.5993 16.0812 35.417 12.5823 35.417 8.33333Z" fill="#DC4632"/>
<path d="M43.2348 8.33337L46.3275 6.19171C46.7327 5.91046 46.8338 5.35525 46.5536 4.949C46.2723 4.54379 45.7171 4.44275 45.3119 4.72296L42.5609 6.62817V2.97608C42.5598 2.48233 42.1609 2.08337 41.6671 2.08337C41.1734 2.08337 40.7744 2.48233 40.7744 2.97608V6.62921L38.0234 4.724C37.6181 4.44275 37.0619 4.54379 36.7817 4.95004C36.5004 5.35525 36.6015 5.9115 37.0077 6.19275L40.0994 8.33337L37.0067 10.475C36.6015 10.7563 36.5004 11.3115 36.7806 11.7177C36.9213 11.9209 37.1306 12.0469 37.3546 12.0875C37.5786 12.1282 37.8192 12.0834 38.0223 11.9427L40.7734 10.0375V13.6907C40.7744 14.1844 41.1734 14.5834 41.6671 14.5834C42.1609 14.5834 42.5598 14.1844 42.5598 13.6907V10.0375L45.3109 11.9427C45.514 12.0834 45.7536 12.1282 45.9786 12.0875C46.2036 12.0469 46.4129 11.9198 46.5525 11.7177C46.8338 11.3125 46.7327 10.7563 46.3265 10.475L43.2348 8.33337Z" fill="#F0F0F0"/>
</svg>
