<svg width="48" height="48" viewBox="0 0 48 48" fill="none" xmlns="http://www.w3.org/2000/svg">
<path fill-rule="evenodd" clip-rule="evenodd" d="M19.7217 0.5625H28.2783L28.4912 5.25781C30.4922 5.73438 32.3721 6.52539 34.0771 7.57227L37.5459 4.40039L40.5713 7.42871L43.5996 10.4541L40.4268 13.9229C41.4756 15.6279 42.2647 17.5078 42.7412 19.5088L47.4365 19.7217V28.2783L42.7412 28.4912C42.2647 30.4922 41.4736 32.3721 40.4268 34.0771L43.5996 37.5459L40.5713 40.5713L37.5459 43.5967L34.0771 40.4268C32.3721 41.4727 30.4922 42.2617 28.4912 42.7412L28.2783 47.4365H19.7217L19.5088 42.7412C17.5078 42.2646 15.6279 41.4736 13.9229 40.4268L10.4541 43.5967L7.42871 40.5713L4.40332 37.5459L7.57324 34.0771C6.52734 32.3721 5.73828 30.4922 5.25879 28.4912L0.563477 28.2783V19.7217L5.25879 19.5088C5.73535 17.5078 6.52637 15.6279 7.57324 13.9229L4.40332 10.4541L7.42871 7.42871L10.4541 4.40039L13.9229 7.57227C15.6279 6.52344 17.5078 5.73438 19.5088 5.25781L19.7217 0.5625ZM24.001 9.77246C31.8574 9.77246 38.2266 16.1426 38.2266 23.998C38.2266 31.8535 31.8564 38.2266 24.001 38.2266C16.1455 38.2266 9.77246 31.8564 9.77246 23.998C9.77246 16.1396 16.1426 9.77246 24.001 9.77246Z" fill="#2E3760"/>
<path fill-rule="evenodd" clip-rule="evenodd" d="M24.001 11.1377C31.1045 11.1377 36.8623 16.8984 36.8623 23.999C36.8623 31.0996 31.1045 36.8604 24.001 36.8604C16.8975 36.8604 11.1396 31.1025 11.1396 23.999C11.1396 16.8955 16.8975 11.1377 24.001 11.1377ZM15.168 25.4746C14.791 25.4746 14.4844 25.167 14.4844 24.791C14.4844 24.415 14.792 24.1074 15.168 24.1074H16.6934L17.6123 20.6807C17.709 20.3154 18.083 20.0996 18.4482 20.1963C18.6943 20.2627 18.875 20.4561 18.9326 20.6895L20.9424 28.1807L23.9648 16.8916C24.0615 16.5293 24.4385 16.3135 24.8008 16.4102C25.0498 16.4766 25.2275 16.6699 25.2881 16.9004L27.002 23.3057L27.9932 20.9805C28.1397 20.6348 28.5381 20.4736 28.8877 20.6201C29.0869 20.7061 29.2256 20.875 29.2783 21.0713L30.2578 24.7168H34.2715C34.6484 24.7168 34.9521 25.0244 34.9521 25.4004C34.9521 25.7764 34.6475 26.084 34.2715 26.084H29.7314C29.4297 26.084 29.1553 25.8818 29.0723 25.5771L28.4717 23.335L27.4971 25.6299C27.4219 25.8291 27.2539 25.9922 27.0322 26.0508C26.667 26.1475 26.293 25.9316 26.1963 25.5693L24.627 19.7061L21.6045 30.9863C21.5439 31.2158 21.3662 31.4102 21.1172 31.4766C20.7549 31.5762 20.3809 31.3574 20.2812 30.9951L18.2715 23.4932L17.8867 24.9326C17.8232 25.2422 17.5459 25.4756 17.2168 25.4756H15.168V25.4746Z" fill="#FF695A"/>
</svg>
