<svg width="50" height="50" viewBox="0 0 50 50" fill="none" xmlns="http://www.w3.org/2000/svg">
<path d="M37.5 4.6875C38.2277 4.44491 38.8889 4.03623 39.4313 3.49383C39.9737 2.95143 40.3824 2.2902 40.625 1.5625C40.8676 2.2902 41.2763 2.95143 41.8187 3.49383C42.3611 4.03623 43.0223 4.44491 43.75 4.6875C43.0223 4.93009 42.3611 5.33877 41.8187 5.88117C41.2763 6.42357 40.8676 7.0848 40.625 7.8125C40.3824 7.0848 39.9737 6.42357 39.4313 5.88117C38.8889 5.33877 38.2277 4.93009 37.5 4.6875Z" fill="#E0747C"/>
<path d="M6.25 7.8125C6.9777 7.56991 7.63893 7.16123 8.18133 6.61883C8.72373 6.07643 9.13241 5.4152 9.375 4.6875C9.61759 5.4152 10.0263 6.07643 10.5687 6.61883C11.1111 7.16123 11.7723 7.56991 12.5 7.8125C11.7723 8.05509 11.1111 8.46377 10.5687 9.00617C10.0263 9.54857 9.61759 10.2098 9.375 10.9375C9.13241 10.2098 8.72373 9.54857 8.18133 9.00617C7.63893 8.46377 6.9777 8.05509 6.25 7.8125Z" fill="#E0747C"/>
<path d="M4.6875 14.0625H45.3125C45.7269 14.0625 46.1243 14.2271 46.4174 14.5201C46.7104 14.8132 46.875 15.2106 46.875 15.625V42.1875H3.125V15.625C3.125 15.2106 3.28962 14.8132 3.58265 14.5201C3.87567 14.2271 4.2731 14.0625 4.6875 14.0625Z" fill="#758190"/>
<path d="M6.25 17.1875H43.75V39.0625H6.25V17.1875Z" fill="#8BD2F5"/>
<path d="M6.25 17.1875V36.032C8.3018 36.4897 10.3978 36.72 12.5 36.7188C25.5633 36.7188 36.2047 28.0469 36.6953 17.1875H6.25Z" fill="#D1EDFB"/>
<path d="M25 21.875C29.7462 21.875 33.5938 18.0274 33.5938 13.2812C33.5938 8.53505 29.7462 4.6875 25 4.6875C20.2538 4.6875 16.4062 8.53505 16.4062 13.2812C16.4062 18.0274 20.2538 21.875 25 21.875Z" fill="#F7D881"/>
<path d="M29.6875 11.7188H26.5625V8.59375H23.4375V11.7188H20.3125V14.8438H23.4375V17.9688H26.5625V14.8438H29.6875V11.7188Z" fill="#EBF7FE"/>
<path d="M34.5836 21.875H34.3555C33.8627 21.875 33.3851 22.0456 33.0039 22.3578L25 28.9062H23.9891C24.4194 28.9067 24.8356 28.7522 25.1614 28.471C25.4872 28.1899 25.7009 27.8008 25.7634 27.375C25.8259 26.9492 25.733 26.5151 25.5017 26.1522C25.2705 25.7892 24.9163 25.5217 24.5039 25.3984L18.957 23.7344C18.3017 23.5375 17.621 23.4375 16.9367 23.4375H16.7445C15.5001 23.4378 14.278 23.7683 13.2031 24.3953L6.25 28.9062V39.0625L14.0625 33.5938H26.5625L35.9625 25.6398C36.2963 25.3573 36.5353 24.979 36.6471 24.5562C36.759 24.1334 36.7383 23.6865 36.5879 23.2758C36.4375 22.8652 36.1646 22.5106 35.8062 22.2601C35.4477 22.0095 35.0209 21.8751 34.5836 21.875Z" fill="#EFBE9A"/>
<path d="M1.5625 42.1875H48.4375V45.3125C48.4375 46.1413 48.1083 46.9362 47.5222 47.5222C46.9362 48.1083 46.1413 48.4375 45.3125 48.4375H4.6875C3.8587 48.4375 3.06384 48.1083 2.47779 47.5222C1.89174 46.9362 1.5625 46.1413 1.5625 45.3125V42.1875Z" fill="#58616C"/>
<path d="M18.75 42.1875V43.75C18.75 44.1644 18.9146 44.5618 19.2076 44.8549C19.5007 45.1479 19.8981 45.3125 20.3125 45.3125H29.6875C30.1019 45.3125 30.4993 45.1479 30.7924 44.8549C31.0854 44.5618 31.25 44.1644 31.25 43.75V42.1875H18.75Z" fill="#ACB3BC"/>
<path d="M3.90625 44.5312H5.46875V46.0938H3.90625V44.5312Z" fill="white"/>
<path d="M7.03125 44.5312H8.59375V46.0938H7.03125V44.5312Z" fill="white"/>
</svg>
